%TF.GenerationSoftware,Altium Limited,Altium Designer,22.4.2 (48)*%
G04 Layer_Color=8388736*
%FSLAX45Y45*%
%MOMM*%
%TF.SameCoordinates,2FA726A9-CE4F-4E86-892B-79CA134EB5E5*%
%TF.FilePolarity,Negative*%
%TF.FileFunction,Soldermask,Top*%
%TF.Part,Single*%
G01*
G75*
%TA.AperFunction,SMDPad,CuDef*%
%ADD12R,2.00000X0.90000*%
%ADD13R,5.00000X5.00000*%
%ADD18R,0.52000X0.52000*%
%ADD22R,0.95000X1.45000*%
%ADD26R,0.80000X1.70000*%
%ADD28R,1.00000X1.70000*%
%TA.AperFunction,ComponentPad*%
%ADD38C,1.75000*%
%ADD39R,1.75000X1.75000*%
%TA.AperFunction,NonConductor*%
%ADD48R,0.65000X0.25000*%
%TA.AperFunction,SMDPad,CuDef*%
%ADD49R,0.50320X1.35320*%
%ADD50R,1.70320X1.10320*%
%ADD51R,2.00320X0.84320*%
%ADD52R,1.70320X1.75320*%
%ADD53R,1.75320X1.75320*%
%ADD54R,1.45320X1.42320*%
G04:AMPARAMS|DCode=55|XSize=3.4532mm|YSize=2.2532mm|CornerRadius=0.15285mm|HoleSize=0mm|Usage=FLASHONLY|Rotation=90.000|XOffset=0mm|YOffset=0mm|HoleType=Round|Shape=RoundedRectangle|*
%AMROUNDEDRECTD55*
21,1,3.45320,1.94750,0,0,90.0*
21,1,3.14750,2.25320,0,0,90.0*
1,1,0.30570,0.97375,1.57375*
1,1,0.30570,0.97375,-1.57375*
1,1,0.30570,-0.97375,-1.57375*
1,1,0.30570,-0.97375,1.57375*
%
%ADD55ROUNDEDRECTD55*%
G04:AMPARAMS|DCode=56|XSize=1.2032mm|YSize=2.2532mm|CornerRadius=0.1516mm|HoleSize=0mm|Usage=FLASHONLY|Rotation=90.000|XOffset=0mm|YOffset=0mm|HoleType=Round|Shape=RoundedRectangle|*
%AMROUNDEDRECTD56*
21,1,1.20320,1.95000,0,0,90.0*
21,1,0.90000,2.25320,0,0,90.0*
1,1,0.30320,0.97500,0.45000*
1,1,0.30320,0.97500,-0.45000*
1,1,0.30320,-0.97500,-0.45000*
1,1,0.30320,-0.97500,0.45000*
%
%ADD56ROUNDEDRECTD56*%
%ADD57R,1.60320X1.75320*%
%ADD58R,1.10320X1.00320*%
%ADD59R,1.45320X1.75320*%
%ADD60R,0.70320X0.65320*%
%TA.AperFunction,ComponentPad*%
%ADD61C,1.80320*%
%ADD62R,1.80320X1.80320*%
%ADD63C,0.85320*%
G04:AMPARAMS|DCode=64|XSize=1.2032mm|YSize=2.0032mm|CornerRadius=0.6016mm|HoleSize=0mm|Usage=FLASHONLY|Rotation=0.000|XOffset=0mm|YOffset=0mm|HoleType=Round|Shape=RoundedRectangle|*
%AMROUNDEDRECTD64*
21,1,1.20320,0.80000,0,0,0.0*
21,1,0.00000,2.00320,0,0,0.0*
1,1,1.20320,0.00000,-0.40000*
1,1,1.20320,0.00000,-0.40000*
1,1,1.20320,0.00000,0.40000*
1,1,1.20320,0.00000,0.40000*
%
%ADD64ROUNDEDRECTD64*%
G04:AMPARAMS|DCode=65|XSize=1.2032mm|YSize=2.3032mm|CornerRadius=0.6016mm|HoleSize=0mm|Usage=FLASHONLY|Rotation=0.000|XOffset=0mm|YOffset=0mm|HoleType=Round|Shape=RoundedRectangle|*
%AMROUNDEDRECTD65*
21,1,1.20320,1.10000,0,0,0.0*
21,1,0.00000,2.30320,0,0,0.0*
1,1,1.20320,0.00000,-0.55000*
1,1,1.20320,0.00000,-0.55000*
1,1,1.20320,0.00000,0.55000*
1,1,1.20320,0.00000,0.55000*
%
%ADD65ROUNDEDRECTD65*%
%ADD66C,2.15320*%
%ADD67R,2.15320X2.15320*%
%TA.AperFunction,ViaPad*%
%ADD68C,1.47320*%
D12*
X11138800Y10351000D02*
D03*
Y10224000D02*
D03*
Y10097000D02*
D03*
Y9970000D02*
D03*
Y9843000D02*
D03*
Y9716000D02*
D03*
Y9589000D02*
D03*
Y9462000D02*
D03*
Y9335000D02*
D03*
Y9208000D02*
D03*
Y9081000D02*
D03*
Y8954000D02*
D03*
Y8827000D02*
D03*
Y8700000D02*
D03*
Y8573000D02*
D03*
Y8446000D02*
D03*
Y8319000D02*
D03*
Y8192000D02*
D03*
Y8065000D02*
D03*
X12838800D02*
D03*
Y8192000D02*
D03*
Y8319000D02*
D03*
Y8446000D02*
D03*
Y8573000D02*
D03*
Y8700000D02*
D03*
Y8827000D02*
D03*
Y8954000D02*
D03*
Y9081000D02*
D03*
Y9208000D02*
D03*
Y9335000D02*
D03*
Y9462000D02*
D03*
Y9589000D02*
D03*
Y9716000D02*
D03*
Y9843000D02*
D03*
Y9970000D02*
D03*
Y10097000D02*
D03*
Y10224000D02*
D03*
Y10351000D02*
D03*
D13*
X11888800Y9601000D02*
D03*
D18*
X11569700Y6896100D02*
D03*
X11649700D02*
D03*
D22*
X8394700Y6515100D02*
D03*
X8199700D02*
D03*
X7421300Y8077200D02*
D03*
X7226300D02*
D03*
D26*
X10561500Y4394200D02*
D03*
X10901500D02*
D03*
X9982200Y4343400D02*
D03*
X9642200D02*
D03*
D28*
X7353300Y10515600D02*
D03*
D38*
X7658100Y5016500D02*
D03*
D39*
X6158100D02*
D03*
D48*
X7475800Y10590600D02*
D03*
Y10540600D02*
D03*
Y10490600D02*
D03*
Y10440600D02*
D03*
X7230800D02*
D03*
Y10490600D02*
D03*
Y10540600D02*
D03*
Y10590600D02*
D03*
D49*
X12425400Y4494500D02*
D03*
X12345400D02*
D03*
X11865400D02*
D03*
X11785400D02*
D03*
X11755400D02*
D03*
X11835400D02*
D03*
X11915400D02*
D03*
X11965400D02*
D03*
X12015400D02*
D03*
X12065400D02*
D03*
X12115400D02*
D03*
X12165400D02*
D03*
X12215400D02*
D03*
X12265400D02*
D03*
X12315400D02*
D03*
X12395400D02*
D03*
D50*
X9626600Y8661200D02*
D03*
Y8331200D02*
D03*
X10116600D02*
D03*
Y8661200D02*
D03*
X10109200Y9245600D02*
D03*
Y8915600D02*
D03*
X9619200D02*
D03*
Y9245600D02*
D03*
D51*
X9722500Y7886700D02*
D03*
Y7759700D02*
D03*
Y7632700D02*
D03*
Y7505700D02*
D03*
Y7378700D02*
D03*
Y7251700D02*
D03*
Y7124700D02*
D03*
Y6997700D02*
D03*
X10343500D02*
D03*
Y7124700D02*
D03*
Y7251700D02*
D03*
Y7378700D02*
D03*
Y7505700D02*
D03*
Y7632700D02*
D03*
Y7759700D02*
D03*
Y7886700D02*
D03*
D52*
X10932500Y6896100D02*
D03*
X11112500D02*
D03*
X12509500Y5346700D02*
D03*
X12329500D02*
D03*
X11164400Y5372100D02*
D03*
X10984400D02*
D03*
X11113600Y6083300D02*
D03*
X10933600D02*
D03*
X11785600D02*
D03*
X11605600D02*
D03*
X12509500Y6096000D02*
D03*
X12329500D02*
D03*
D53*
X12290000Y6896100D02*
D03*
X12475000D02*
D03*
X11798300Y5346700D02*
D03*
X11613300D02*
D03*
D54*
X10002700Y10020300D02*
D03*
X9707700D02*
D03*
D55*
X10375900Y5638800D02*
D03*
D56*
X9740900Y5408800D02*
D03*
Y5638800D02*
D03*
Y5868800D02*
D03*
D57*
X8223500Y7137400D02*
D03*
X8413500D02*
D03*
D58*
X9755200Y10915400D02*
D03*
Y10725400D02*
D03*
X9955200Y10820400D02*
D03*
X7215200Y7219700D02*
D03*
Y7029700D02*
D03*
X7415200Y7124700D02*
D03*
D59*
X8190600Y7861300D02*
D03*
X8395600D02*
D03*
X8216900Y9283700D02*
D03*
X8421900D02*
D03*
X8189700Y10020300D02*
D03*
X8394700D02*
D03*
X8177900Y8572500D02*
D03*
X8382900D02*
D03*
D60*
X7214200Y8813800D02*
D03*
X7289200D02*
D03*
X7226900Y9525000D02*
D03*
X7301900D02*
D03*
D61*
X13639799Y4876800D02*
D03*
Y4622800D02*
D03*
Y4368800D02*
D03*
X13652499Y6210300D02*
D03*
Y5956300D02*
D03*
Y7556500D02*
D03*
Y7302500D02*
D03*
X13614400Y8572500D02*
D03*
Y8826500D02*
D03*
Y9080500D02*
D03*
D62*
X13639799Y4114800D02*
D03*
X13652499Y5702300D02*
D03*
Y7048500D02*
D03*
X13614400Y8318500D02*
D03*
D63*
X11801400Y4388000D02*
D03*
X12379400D02*
D03*
D64*
X12522400Y4020000D02*
D03*
X11658400D02*
D03*
D65*
X12522400Y4438000D02*
D03*
X11658400D02*
D03*
D66*
X6026702Y10143299D02*
D03*
X6045200Y8026400D02*
D03*
D67*
X6026702Y9643300D02*
D03*
X6045200Y7526401D02*
D03*
D68*
X13931900Y6362700D02*
D03*
X13652499Y6705600D02*
D03*
X10931108Y7438608D02*
D03*
X10655300Y7581900D02*
D03*
X11303000Y6883400D02*
D03*
X7454900Y8864600D02*
D03*
X7277100Y9702800D02*
D03*
X9994900Y9766300D02*
D03*
X13982700Y7874000D02*
D03*
X12941299Y7895540D02*
D03*
X13131799Y9359900D02*
D03*
X13119099Y9042400D02*
D03*
X10620849Y8940782D02*
D03*
X10007294Y7790181D02*
D03*
X9463234Y7454900D02*
D03*
X10074692Y7331492D02*
D03*
X10878820Y10104120D02*
D03*
X11645900Y9055100D02*
D03*
X11125200Y7886700D02*
D03*
X10579100Y8610600D02*
D03*
X13081000Y8509000D02*
D03*
X13347701Y8420100D02*
D03*
X10858500Y9334500D02*
D03*
X12382500Y9753600D02*
D03*
Y9944100D02*
D03*
X9982200Y7581900D02*
D03*
X9601200Y10604500D02*
D03*
X12700000Y3784600D02*
D03*
X9944100Y7137400D02*
D03*
X12166600Y4305300D02*
D03*
X11976100Y4318000D02*
D03*
X9575800Y9880600D02*
D03*
X9994900Y5232400D02*
D03*
X8216900Y7518400D02*
D03*
X8458200Y7340600D02*
D03*
X9290050Y6794500D02*
D03*
X10337800Y6781800D02*
D03*
X8534400Y8724900D02*
D03*
X10871200Y9944100D02*
D03*
X8280400Y9804400D02*
D03*
X12611100Y8686800D02*
D03*
X10502900Y8001000D02*
D03*
X10363200Y5969000D02*
D03*
X6629400Y10642600D02*
D03*
X8686800Y10083800D02*
D03*
X7048500Y8801100D02*
D03*
X6997700Y10439400D02*
D03*
X6781800Y10426700D02*
D03*
X7073900Y9563100D02*
D03*
X9423400Y9385300D02*
D03*
X10909300Y6692900D02*
D03*
X11938000Y5892800D02*
D03*
X12344400Y6616700D02*
D03*
X11633200Y5880100D02*
D03*
X11950700Y6299200D02*
D03*
X12001500Y9182100D02*
D03*
X12344400Y4787900D02*
D03*
%TF.MD5,e413b1a9796c7726cd79f55093fcebd3*%
M02*
