%TF.GenerationSoftware,Altium Limited,Altium Designer,22.4.2 (48)*%
G04 Layer_Color=65535*
%FSLAX45Y45*%
%MOMM*%
%TF.SameCoordinates,2FA726A9-CE4F-4E86-892B-79CA134EB5E5*%
%TF.FilePolarity,Positive*%
%TF.FileFunction,Legend,Top*%
%TF.Part,Single*%
G01*
G75*
%TA.AperFunction,NonConductor*%
%ADD41C,0.25000*%
%ADD42C,0.20000*%
%ADD43C,0.30000*%
%ADD44C,0.15000*%
%ADD45C,0.12000*%
%ADD46C,0.25400*%
%ADD47C,0.12700*%
D41*
X10991300Y10351000D02*
G03*
X10991300Y10351000I-12500J0D01*
G01*
X9509100Y8661200D02*
G03*
X9509100Y8661200I-12500J0D01*
G01*
X9501700Y9245600D02*
G03*
X9501700Y9245600I-12500J0D01*
G01*
X9720200Y10136300D02*
G03*
X9720200Y10136300I-12500J0D01*
G01*
X9753400Y5973800D02*
G03*
X9753400Y5973800I-12500J0D01*
G01*
X9767700Y11010400D02*
G03*
X9767700Y11010400I-12500J0D01*
G01*
X7227700Y7314700D02*
G03*
X7227700Y7314700I-12500J0D01*
G01*
X7163300Y10590600D02*
G03*
X7163300Y10590600I-12500J0D01*
G01*
D42*
X9723000Y7982200D02*
G03*
X9723000Y7982200I-10000J0D01*
G01*
X13505299Y5018800D02*
X13774300D01*
X13505299Y3972800D02*
Y5018800D01*
Y3972800D02*
X13774300D01*
Y5018800D01*
X11083800Y11100000D02*
X12893800D01*
Y7950000D02*
Y7982500D01*
Y10433500D02*
Y11100000D01*
X11083800Y7950000D02*
X12893800D01*
X11083800D02*
Y7982500D01*
Y10433500D02*
Y11100000D01*
X9621600Y8746200D02*
X10121600D01*
X9621600Y8246200D02*
X10121600D01*
X9621600D02*
Y8251200D01*
X10121600Y8246200D02*
Y8251200D01*
Y8741200D02*
Y8746200D01*
X9621600Y8741200D02*
Y8746200D01*
Y8416200D02*
Y8576200D01*
X10121600Y8416200D02*
Y8576200D01*
X10114200Y9000600D02*
Y9160600D01*
X9614200Y9000600D02*
Y9160600D01*
Y9325600D02*
Y9330600D01*
X10114200Y9325600D02*
Y9330600D01*
Y8830600D02*
Y8835600D01*
X9614200Y8830600D02*
Y8835600D01*
Y8830600D02*
X10114200D01*
X9614200Y9330600D02*
X10114200D01*
X9813000Y7957200D02*
X10253000D01*
X9813000Y6927200D02*
X10253000D01*
X5786709Y10393319D02*
X6356709D01*
X5606709D02*
X5701709D01*
X5786709D02*
X5791709Y10453319D01*
X5696709D02*
X5701709Y10393319D01*
X5696709Y10453319D02*
X5791709D01*
X5606709Y9393313D02*
X6116707D01*
X5606709D02*
Y10393319D01*
X6186707Y9393313D02*
X6356707D01*
X6186707D02*
X6194207Y9333313D01*
X6109207D02*
X6116707Y9393313D01*
X6109207Y9333313D02*
X6194207D01*
X6356707Y9393313D02*
X6356709Y10393319D01*
X13787000Y5560300D02*
Y6352300D01*
X13517999Y5560300D02*
X13787000D01*
X13517999D02*
Y6352300D01*
X13787000D01*
Y6906500D02*
Y7698500D01*
X13517999Y6906500D02*
X13787000D01*
X13517999D02*
Y7698500D01*
X13787000D01*
X13748900Y8176500D02*
Y9222500D01*
X13479900Y8176500D02*
X13748900D01*
X13479900D02*
Y9222500D01*
X13748900D01*
X11559700Y6959600D02*
X11659700D01*
X11559700Y6832600D02*
X11659700D01*
X9900200Y9937800D02*
Y10102800D01*
X9810200Y9937800D02*
Y10102800D01*
X9900200D01*
X9810200Y9937800D02*
X9900200D01*
X9873400Y5303800D02*
X10243400D01*
X9873400Y5973800D02*
X10243400D01*
Y5303800D02*
Y5973800D01*
X9873400Y5303800D02*
Y5973800D01*
X8284700Y6445100D02*
X8309700D01*
X8284700Y6585100D02*
X8309700D01*
X7311300Y8007200D02*
X7336300D01*
X7311300Y8147200D02*
X7336300D01*
X9838700Y10966400D02*
X9920200D01*
Y10900400D02*
Y10966400D01*
X9838700Y10674400D02*
X9920200D01*
Y10740400D01*
X8283100Y7928800D02*
X8303100D01*
X8283100Y7793800D02*
X8303100D01*
X8309400Y9351200D02*
X8329400D01*
X8309400Y9216200D02*
X8329400D01*
X8282200Y10087800D02*
X8302200D01*
X8282200Y9952800D02*
X8302200D01*
X7298700Y7270700D02*
X7380200D01*
Y7204700D02*
Y7270700D01*
X7298700Y6978700D02*
X7380200D01*
Y7044700D01*
X8270400Y8640000D02*
X8290400D01*
X8270400Y8505000D02*
X8290400D01*
X10891500Y4259200D02*
Y4271700D01*
Y4516700D02*
Y4529200D01*
X10571500D02*
X10891500D01*
X10571500Y4259200D02*
Y4271700D01*
Y4516700D02*
Y4529200D01*
Y4259200D02*
X10891500D01*
X9652200Y4465900D02*
Y4478400D01*
Y4208400D02*
Y4220900D01*
Y4208400D02*
X9972200D01*
Y4465900D02*
Y4478400D01*
Y4208400D02*
Y4220900D01*
X9652200Y4478400D02*
X9972200D01*
X7223300Y10640600D02*
Y10645600D01*
Y10385600D02*
Y10390600D01*
Y10385600D02*
X7483300D01*
Y10640600D02*
Y10645600D01*
Y10385600D02*
Y10390600D01*
X7223300Y10645600D02*
X7483300D01*
X8193100Y4991500D02*
Y5041500D01*
X8168100Y5016500D02*
X8218100D01*
X5805207Y8276420D02*
X6375207D01*
X5625206D02*
X5720206D01*
X5805207D02*
X5810207Y8336420D01*
X5715207D02*
X5720206Y8276420D01*
X5715207Y8336420D02*
X5810207D01*
X5625206Y7276414D02*
X6135205D01*
X5625206D02*
Y8276420D01*
X6205205Y7276414D02*
X6375205D01*
X6205205D02*
X6212705Y7216414D01*
X6127705D02*
X6135205Y7276414D01*
X6127705Y7216414D02*
X6212705D01*
X6375205Y7276414D02*
X6375207Y8276420D01*
D43*
X9893000Y7882200D02*
G03*
X9893000Y7882200I-20000J0D01*
G01*
D44*
X8138100Y5016500D02*
G03*
X8138100Y5016500I-1230000J0D01*
G01*
D45*
X11632400Y3749000D02*
X12548400D01*
X11632400D02*
Y3919500D01*
X12548400Y3749000D02*
Y3919500D01*
Y4120500D02*
Y4312500D01*
X11632400Y4120500D02*
Y4312500D01*
D46*
X7645400Y3611020D02*
Y3737979D01*
X7708879D01*
X7730039Y3716819D01*
Y3674499D01*
X7708879Y3653339D01*
X7645400D01*
X7687720D02*
X7730039Y3611020D01*
X7793519D02*
X7835838D01*
X7856998Y3632179D01*
Y3674499D01*
X7835838Y3695659D01*
X7793519D01*
X7772359Y3674499D01*
Y3632179D01*
X7793519Y3611020D01*
X7983957Y3737979D02*
Y3611020D01*
X7920477D01*
X7899318Y3632179D01*
Y3674499D01*
X7920477Y3695659D01*
X7983957D01*
X8026277D02*
Y3611020D01*
Y3653339D01*
X8047436Y3674499D01*
X8068596Y3695659D01*
X8089756D01*
X8153235Y3611020D02*
X8195555D01*
X8174395D01*
Y3695659D01*
X8153235D01*
X8301354Y3568700D02*
X8322514D01*
X8343674Y3589860D01*
Y3695659D01*
X8280194D01*
X8259035Y3674499D01*
Y3632179D01*
X8280194Y3611020D01*
X8343674D01*
X8407153D02*
X8449473D01*
X8470633Y3632179D01*
Y3674499D01*
X8449473Y3695659D01*
X8407153D01*
X8385993Y3674499D01*
Y3632179D01*
X8407153Y3611020D01*
X8639911D02*
Y3737979D01*
X8682231Y3695659D01*
X8724550Y3737979D01*
Y3611020D01*
X8830349D02*
X8788030D01*
X8766870Y3632179D01*
Y3674499D01*
X8788030Y3695659D01*
X8830349D01*
X8851509Y3674499D01*
Y3653339D01*
X8766870D01*
X8893829Y3611020D02*
Y3695659D01*
X8957308D01*
X8978468Y3674499D01*
Y3611020D01*
X9105427Y3737979D02*
Y3611020D01*
X9041947D01*
X9020788Y3632179D01*
Y3674499D01*
X9041947Y3695659D01*
X9105427D01*
X9168906Y3611020D02*
X9211226D01*
X9232386Y3632179D01*
Y3674499D01*
X9211226Y3695659D01*
X9168906D01*
X9147746Y3674499D01*
Y3632179D01*
X9168906Y3611020D01*
X9274705Y3695659D02*
X9359345D01*
X9274705Y3611020D01*
X9359345D01*
X9422824Y3695659D02*
X9465144D01*
X9486304Y3674499D01*
Y3611020D01*
X9422824D01*
X9401664Y3632179D01*
X9422824Y3653339D01*
X9486304D01*
X9990639Y3712599D02*
X9969479Y3733759D01*
X9927160D01*
X9906000Y3712599D01*
Y3627960D01*
X9927160Y3606800D01*
X9969479D01*
X9990639Y3627960D01*
X10054119Y3691439D02*
X10096438D01*
X10117598Y3670279D01*
Y3606800D01*
X10054119D01*
X10032959Y3627960D01*
X10054119Y3649120D01*
X10117598D01*
X10181077Y3712599D02*
Y3691439D01*
X10159918D01*
X10202237D01*
X10181077D01*
Y3627960D01*
X10202237Y3606800D01*
X10265717Y3733759D02*
Y3606800D01*
Y3670279D01*
X10286877Y3691439D01*
X10329196D01*
X10350356Y3670279D01*
Y3606800D01*
X10456155D02*
X10413835D01*
X10392676Y3627960D01*
Y3670279D01*
X10413835Y3691439D01*
X10456155D01*
X10477315Y3670279D01*
Y3649120D01*
X10392676D01*
X10519635Y3691439D02*
Y3606800D01*
Y3649120D01*
X10540794Y3670279D01*
X10561954Y3691439D01*
X10583114D01*
X10646593Y3606800D02*
X10688913D01*
X10667753D01*
Y3691439D01*
X10646593D01*
X10752393Y3606800D02*
Y3691439D01*
X10815872D01*
X10837032Y3670279D01*
Y3606800D01*
X10942831D02*
X10900511D01*
X10879351Y3627960D01*
Y3670279D01*
X10900511Y3691439D01*
X10942831D01*
X10963991Y3670279D01*
Y3649120D01*
X10879351D01*
X11133269Y3733759D02*
Y3606800D01*
X11196748D01*
X11217908Y3627960D01*
Y3649120D01*
X11196748Y3670279D01*
X11133269D01*
X11196748D01*
X11217908Y3691439D01*
Y3712599D01*
X11196748Y3733759D01*
X11133269D01*
X11281388Y3691439D02*
X11323707D01*
X11344867Y3670279D01*
Y3606800D01*
X11281388D01*
X11260228Y3627960D01*
X11281388Y3649120D01*
X11344867D01*
X11408346Y3712599D02*
Y3691439D01*
X11387187D01*
X11429506D01*
X11408346D01*
Y3627960D01*
X11429506Y3606800D01*
X11492986Y3691439D02*
Y3606800D01*
Y3649120D01*
X11514146Y3670279D01*
X11535306Y3691439D01*
X11556465D01*
X11683424Y3606800D02*
X11641104D01*
X11619945Y3627960D01*
Y3670279D01*
X11641104Y3691439D01*
X11683424D01*
X11704584Y3670279D01*
Y3649120D01*
X11619945D01*
X11746904Y3606800D02*
X11810383D01*
X11831543Y3627960D01*
X11810383Y3649120D01*
X11768063D01*
X11746904Y3670279D01*
X11768063Y3691439D01*
X11831543D01*
X10236241Y9220175D02*
Y9093217D01*
X10261633Y9067825D01*
X10312417D01*
X10337808Y9093217D01*
Y9220175D01*
X10490159D02*
X10388592D01*
Y9144000D01*
X10439375Y9169392D01*
X10464767D01*
X10490159Y9144000D01*
Y9093217D01*
X10464767Y9067825D01*
X10413984D01*
X10388592Y9093217D01*
X11582400Y4833571D02*
Y4706612D01*
X11607792Y4681220D01*
X11658575D01*
X11683967Y4706612D01*
Y4833571D01*
X11836318Y4808179D02*
X11810926Y4833571D01*
X11760143D01*
X11734751Y4808179D01*
Y4782787D01*
X11760143Y4757395D01*
X11810926D01*
X11836318Y4732003D01*
Y4706612D01*
X11810926Y4681220D01*
X11760143D01*
X11734751Y4706612D01*
X11887101Y4833571D02*
Y4681220D01*
X11963277D01*
X11988669Y4706612D01*
Y4732003D01*
X11963277Y4757395D01*
X11887101D01*
X11963277D01*
X11988669Y4782787D01*
Y4808179D01*
X11963277Y4833571D01*
X11887101D01*
X12039452Y4757395D02*
X12141019D01*
X12293370Y4808179D02*
X12267978Y4833571D01*
X12217195D01*
X12191803Y4808179D01*
Y4706612D01*
X12217195Y4681220D01*
X12267978D01*
X12293370Y4706612D01*
X7150100Y10894011D02*
Y10767052D01*
X7175492Y10741660D01*
X7226275D01*
X7251667Y10767052D01*
Y10894011D01*
X7378626Y10741660D02*
Y10894011D01*
X7302451Y10817835D01*
X7404018D01*
X9489440Y9570671D02*
Y9443712D01*
X9514832Y9418320D01*
X9565615D01*
X9591007Y9443712D01*
Y9570671D01*
X9641791Y9545279D02*
X9667183Y9570671D01*
X9717966D01*
X9743358Y9545279D01*
Y9519887D01*
X9717966Y9494495D01*
X9692574D01*
X9717966D01*
X9743358Y9469103D01*
Y9443712D01*
X9717966Y9418320D01*
X9667183D01*
X9641791Y9443712D01*
X10261641Y8445475D02*
Y8318517D01*
X10287033Y8293125D01*
X10337817D01*
X10363208Y8318517D01*
Y8445475D01*
X10515559Y8293125D02*
X10413992D01*
X10515559Y8394692D01*
Y8420083D01*
X10490167Y8445475D01*
X10439384D01*
X10413992Y8420083D01*
X9611360Y6255971D02*
Y6129012D01*
X9636752Y6103620D01*
X9687535D01*
X9712927Y6129012D01*
Y6255971D01*
X9763711Y6103620D02*
X9814494D01*
X9789103D01*
Y6255971D01*
X9763711Y6230579D01*
X10627327Y4752299D02*
X10601935Y4777691D01*
X10551152D01*
X10525760Y4752299D01*
Y4726907D01*
X10551152Y4701515D01*
X10601935D01*
X10627327Y4676123D01*
Y4650732D01*
X10601935Y4625340D01*
X10551152D01*
X10525760Y4650732D01*
X10678111Y4777691D02*
Y4625340D01*
X10728894Y4676123D01*
X10779678Y4625340D01*
Y4777691D01*
X10932029Y4625340D02*
X10830461D01*
X10932029Y4726907D01*
Y4752299D01*
X10906637Y4777691D01*
X10855853D01*
X10830461Y4752299D01*
X9710387Y4701499D02*
X9684995Y4726891D01*
X9634212D01*
X9608820Y4701499D01*
Y4676107D01*
X9634212Y4650715D01*
X9684995D01*
X9710387Y4625323D01*
Y4599932D01*
X9684995Y4574540D01*
X9634212D01*
X9608820Y4599932D01*
X9761171Y4726891D02*
Y4574540D01*
X9811954Y4625323D01*
X9862738Y4574540D01*
Y4726891D01*
X9913521Y4574540D02*
X9964305D01*
X9938913D01*
Y4726891D01*
X9913521Y4701499D01*
X7211060Y9644380D02*
Y9796731D01*
X7287235D01*
X7312627Y9771339D01*
Y9720555D01*
X7287235Y9695163D01*
X7211060D01*
X7261843D02*
X7312627Y9644380D01*
X7363411Y9669772D02*
X7388803Y9644380D01*
X7439586D01*
X7464978Y9669772D01*
Y9771339D01*
X7439586Y9796731D01*
X7388803D01*
X7363411Y9771339D01*
Y9745947D01*
X7388803Y9720555D01*
X7464978D01*
X7198360Y8933180D02*
Y9085531D01*
X7274535D01*
X7299927Y9060139D01*
Y9009355D01*
X7274535Y8983963D01*
X7198360D01*
X7249143D02*
X7299927Y8933180D01*
X7350711Y9060139D02*
X7376103Y9085531D01*
X7426886D01*
X7452278Y9060139D01*
Y9034747D01*
X7426886Y9009355D01*
X7452278Y8983963D01*
Y8958572D01*
X7426886Y8933180D01*
X7376103D01*
X7350711Y8958572D01*
Y8983963D01*
X7376103Y9009355D01*
X7350711Y9034747D01*
Y9060139D01*
X7376103Y9009355D02*
X7426886D01*
X8100060Y10228580D02*
Y10380931D01*
X8176235D01*
X8201627Y10355539D01*
Y10304755D01*
X8176235Y10279363D01*
X8100060D01*
X8150843D02*
X8201627Y10228580D01*
X8252411Y10380931D02*
X8353978D01*
Y10355539D01*
X8252411Y10253972D01*
Y10228580D01*
X8128000Y9491980D02*
Y9644331D01*
X8204175D01*
X8229567Y9618939D01*
Y9568155D01*
X8204175Y9542763D01*
X8128000D01*
X8178783D02*
X8229567Y9491980D01*
X8381918Y9644331D02*
X8331134Y9618939D01*
X8280351Y9568155D01*
Y9517372D01*
X8305743Y9491980D01*
X8356526D01*
X8381918Y9517372D01*
Y9542763D01*
X8356526Y9568155D01*
X8280351D01*
X8087360Y8780780D02*
Y8933131D01*
X8163535D01*
X8188927Y8907739D01*
Y8856955D01*
X8163535Y8831563D01*
X8087360D01*
X8138143D02*
X8188927Y8780780D01*
X8341278Y8933131D02*
X8239711D01*
Y8856955D01*
X8290494Y8882347D01*
X8315886D01*
X8341278Y8856955D01*
Y8806172D01*
X8315886Y8780780D01*
X8265103D01*
X8239711Y8806172D01*
X8100060Y8069580D02*
Y8221931D01*
X8176235D01*
X8201627Y8196539D01*
Y8145755D01*
X8176235Y8120363D01*
X8100060D01*
X8150843D02*
X8201627Y8069580D01*
X8328586D02*
Y8221931D01*
X8252411Y8145755D01*
X8353978D01*
X8125460Y7345680D02*
Y7498031D01*
X8201635D01*
X8227027Y7472639D01*
Y7421855D01*
X8201635Y7396463D01*
X8125460D01*
X8176243D02*
X8227027Y7345680D01*
X8277811Y7472639D02*
X8303203Y7498031D01*
X8353986D01*
X8379378Y7472639D01*
Y7447247D01*
X8353986Y7421855D01*
X8328594D01*
X8353986D01*
X8379378Y7396463D01*
Y7371072D01*
X8353986Y7345680D01*
X8303203D01*
X8277811Y7371072D01*
X8158480Y6682740D02*
Y6835091D01*
X8234655D01*
X8260047Y6809699D01*
Y6758915D01*
X8234655Y6733523D01*
X8158480D01*
X8209263D02*
X8260047Y6682740D01*
X8412398D02*
X8310831D01*
X8412398Y6784307D01*
Y6809699D01*
X8387006Y6835091D01*
X8336223D01*
X8310831Y6809699D01*
X7183120Y8244840D02*
Y8397191D01*
X7259295D01*
X7284687Y8371799D01*
Y8321015D01*
X7259295Y8295623D01*
X7183120D01*
X7233903D02*
X7284687Y8244840D01*
X7335471D02*
X7386254D01*
X7360863D01*
Y8397191D01*
X7335471Y8371799D01*
X7284687Y7442192D02*
Y7543759D01*
X7259295Y7569151D01*
X7208512D01*
X7183120Y7543759D01*
Y7442192D01*
X7208512Y7416800D01*
X7259295D01*
X7233903Y7467583D02*
X7284687Y7416800D01*
X7259295D02*
X7284687Y7442192D01*
X7335471Y7543759D02*
X7360863Y7569151D01*
X7411646D01*
X7437038Y7543759D01*
Y7518367D01*
X7411646Y7492975D01*
X7386254D01*
X7411646D01*
X7437038Y7467583D01*
Y7442192D01*
X7411646Y7416800D01*
X7360863D01*
X7335471Y7442192D01*
X9824687Y11137892D02*
Y11239459D01*
X9799295Y11264851D01*
X9748512D01*
X9723120Y11239459D01*
Y11137892D01*
X9748512Y11112500D01*
X9799295D01*
X9773903Y11163283D02*
X9824687Y11112500D01*
X9799295D02*
X9824687Y11137892D01*
X9977038Y11112500D02*
X9875471D01*
X9977038Y11214067D01*
Y11239459D01*
X9951646Y11264851D01*
X9900863D01*
X9875471Y11239459D01*
X10980420Y11196320D02*
Y11348671D01*
X11031203Y11297887D01*
X11081987Y11348671D01*
Y11196320D01*
X11132771Y11348671D02*
Y11196320D01*
X11208946D01*
X11234338Y11221712D01*
Y11323279D01*
X11208946Y11348671D01*
X11132771D01*
X11285121Y11196320D02*
X11335905D01*
X11310513D01*
Y11348671D01*
X11285121Y11323279D01*
X5684520Y6494731D02*
Y6342380D01*
X5786087D01*
X5938438Y6469339D02*
X5913046Y6494731D01*
X5862263D01*
X5836871Y6469339D01*
Y6443947D01*
X5862263Y6418555D01*
X5913046D01*
X5938438Y6393163D01*
Y6367772D01*
X5913046Y6342380D01*
X5862263D01*
X5836871Y6367772D01*
X5989221Y6342380D02*
X6040005D01*
X6014613D01*
Y6494731D01*
X5989221Y6469339D01*
X5696351Y8536907D02*
X5662496D01*
X5679423D01*
Y8452268D01*
X5662496Y8435340D01*
X5645568D01*
X5628640Y8452268D01*
X5797919Y8435340D02*
X5730207D01*
X5797919Y8503051D01*
Y8519979D01*
X5780991Y8536907D01*
X5747135D01*
X5730207Y8519979D01*
X5678571Y10652727D02*
X5644716D01*
X5661643D01*
Y10568088D01*
X5644716Y10551160D01*
X5627788D01*
X5610860Y10568088D01*
X5712427Y10551160D02*
X5746283D01*
X5729355D01*
Y10652727D01*
X5712427Y10635799D01*
X9647133Y10337775D02*
Y10185425D01*
X9723308D01*
X9748700Y10210817D01*
Y10312383D01*
X9723308Y10337775D01*
X9647133D01*
X9799484Y10185425D02*
X9850267D01*
X9824876D01*
Y10337775D01*
X9799484Y10312383D01*
X10932127Y7231339D02*
X10906735Y7256731D01*
X10855952D01*
X10830560Y7231339D01*
Y7129772D01*
X10855952Y7104380D01*
X10906735D01*
X10932127Y7129772D01*
X10982911D02*
X11008303Y7104380D01*
X11059086D01*
X11084478Y7129772D01*
Y7231339D01*
X11059086Y7256731D01*
X11008303D01*
X10982911Y7231339D01*
Y7205947D01*
X11008303Y7180555D01*
X11084478D01*
X11645867Y7172919D02*
X11620475Y7198311D01*
X11569692D01*
X11544300Y7172919D01*
Y7071352D01*
X11569692Y7045960D01*
X11620475D01*
X11645867Y7071352D01*
X11696651Y7172919D02*
X11722043Y7198311D01*
X11772826D01*
X11798218Y7172919D01*
Y7147527D01*
X11772826Y7122135D01*
X11798218Y7096743D01*
Y7071352D01*
X11772826Y7045960D01*
X11722043D01*
X11696651Y7071352D01*
Y7096743D01*
X11722043Y7122135D01*
X11696651Y7147527D01*
Y7172919D01*
X11722043Y7122135D02*
X11772826D01*
X12285947Y7231339D02*
X12260555Y7256731D01*
X12209772D01*
X12184380Y7231339D01*
Y7129772D01*
X12209772Y7104380D01*
X12260555D01*
X12285947Y7129772D01*
X12336731Y7256731D02*
X12438298D01*
Y7231339D01*
X12336731Y7129772D01*
Y7104380D01*
X10932127Y6418539D02*
X10906735Y6443931D01*
X10855952D01*
X10830560Y6418539D01*
Y6316972D01*
X10855952Y6291580D01*
X10906735D01*
X10932127Y6316972D01*
X11084478Y6443931D02*
X11033694Y6418539D01*
X10982911Y6367755D01*
Y6316972D01*
X11008303Y6291580D01*
X11059086D01*
X11084478Y6316972D01*
Y6342363D01*
X11059086Y6367755D01*
X10982911D01*
X11605227Y6418539D02*
X11579835Y6443931D01*
X11529052D01*
X11503660Y6418539D01*
Y6316972D01*
X11529052Y6291580D01*
X11579835D01*
X11605227Y6316972D01*
X11757578Y6443931D02*
X11656011D01*
Y6367755D01*
X11706794Y6393147D01*
X11732186D01*
X11757578Y6367755D01*
Y6316972D01*
X11732186Y6291580D01*
X11681403D01*
X11656011Y6316972D01*
X12329127Y6431239D02*
X12303735Y6456631D01*
X12252952D01*
X12227560Y6431239D01*
Y6329672D01*
X12252952Y6304280D01*
X12303735D01*
X12329127Y6329672D01*
X12456086Y6304280D02*
Y6456631D01*
X12379911Y6380455D01*
X12481478D01*
X12329127Y5681939D02*
X12303735Y5707331D01*
X12252952D01*
X12227560Y5681939D01*
Y5580372D01*
X12252952Y5554980D01*
X12303735D01*
X12329127Y5580372D01*
X12379911Y5681939D02*
X12405303Y5707331D01*
X12456086D01*
X12481478Y5681939D01*
Y5656547D01*
X12456086Y5631155D01*
X12430694D01*
X12456086D01*
X12481478Y5605763D01*
Y5580372D01*
X12456086Y5554980D01*
X12405303D01*
X12379911Y5580372D01*
X11610307Y5681939D02*
X11584915Y5707331D01*
X11534132D01*
X11508740Y5681939D01*
Y5580372D01*
X11534132Y5554980D01*
X11584915D01*
X11610307Y5580372D01*
X11762658Y5554980D02*
X11661091D01*
X11762658Y5656547D01*
Y5681939D01*
X11737266Y5707331D01*
X11686483D01*
X11661091Y5681939D01*
X10982927Y5707339D02*
X10957535Y5732731D01*
X10906752D01*
X10881360Y5707339D01*
Y5605772D01*
X10906752Y5580380D01*
X10957535D01*
X10982927Y5605772D01*
X11033711Y5580380D02*
X11084494D01*
X11059103D01*
Y5732731D01*
X11033711Y5707339D01*
D47*
X13373100Y4381500D02*
X13423883D01*
X12877800Y4102092D02*
Y4152875D01*
X12903192Y4178267D01*
X12928583Y4152875D01*
Y4102092D01*
Y4140180D01*
X12877800D01*
X12953975Y4102092D02*
Y4114788D01*
X12966672D01*
Y4102092D01*
X12953975D01*
X13068237Y4165571D02*
X13055544Y4178267D01*
X13030151D01*
X13017455Y4165571D01*
Y4152875D01*
X13030151Y4140180D01*
X13055544D01*
X13068237Y4127484D01*
Y4114788D01*
X13055544Y4102092D01*
X13030151D01*
X13017455Y4114788D01*
X13093629Y4102092D02*
X13119022D01*
X13106326D01*
Y4152875D01*
X13093629D01*
X13182501Y4076700D02*
X13195197D01*
X13207893Y4089396D01*
Y4152875D01*
X13169806D01*
X13157111Y4140180D01*
Y4114788D01*
X13169806Y4102092D01*
X13207893D01*
X13233286D02*
Y4152875D01*
X13271373D01*
X13284068Y4140180D01*
Y4102092D01*
X13322156Y4152875D02*
X13347548D01*
X13360245Y4140180D01*
Y4102092D01*
X13322156D01*
X13309460Y4114788D01*
X13322156Y4127484D01*
X13360245D01*
X13385635Y4102092D02*
X13411028D01*
X13398332D01*
Y4178267D01*
X13385635D01*
X13309583Y4648179D02*
X13296889Y4660875D01*
X13271497D01*
X13258800Y4648179D01*
Y4597396D01*
X13271497Y4584700D01*
X13296889D01*
X13309583Y4597396D01*
Y4622788D01*
X13284192D01*
X13334975Y4584700D02*
Y4660875D01*
X13385759Y4584700D01*
Y4660875D01*
X13411151D02*
Y4584700D01*
X13449239D01*
X13461934Y4597396D01*
Y4648179D01*
X13449239Y4660875D01*
X13411151D01*
X13258800Y4940275D02*
Y4889492D01*
X13284192Y4864100D01*
X13309583Y4889492D01*
Y4940275D01*
X13385759Y4927579D02*
X13373064Y4940275D01*
X13347672D01*
X13334975Y4927579D01*
Y4876796D01*
X13347672Y4864100D01*
X13373064D01*
X13385759Y4876796D01*
X13461934Y4927579D02*
X13449239Y4940275D01*
X13423846D01*
X13411151Y4927579D01*
Y4876796D01*
X13423846Y4864100D01*
X13449239D01*
X13461934Y4876796D01*
X13334982Y5727679D02*
X13322289Y5740375D01*
X13296896D01*
X13284200Y5727679D01*
Y5676896D01*
X13296896Y5664200D01*
X13322289D01*
X13334982Y5676896D01*
Y5702288D01*
X13309592D01*
X13360374Y5664200D02*
Y5740375D01*
X13411159Y5664200D01*
Y5740375D01*
X13436551D02*
Y5664200D01*
X13474638D01*
X13487334Y5676896D01*
Y5727679D01*
X13474638Y5740375D01*
X13436551D01*
X13284200Y5994375D02*
Y5943592D01*
X13309592Y5918200D01*
X13334982Y5943592D01*
Y5994375D01*
X13411159Y5981679D02*
X13398463Y5994375D01*
X13373071D01*
X13360374Y5981679D01*
Y5930896D01*
X13373071Y5918200D01*
X13398463D01*
X13411159Y5930896D01*
X13487334Y5981679D02*
X13474638Y5994375D01*
X13449248D01*
X13436551Y5981679D01*
Y5930896D01*
X13449248Y5918200D01*
X13474638D01*
X13487334Y5930896D01*
X13144482Y6273771D02*
X13131789Y6286467D01*
X13106396D01*
X13093700Y6273771D01*
Y6261075D01*
X13106396Y6248380D01*
X13131789D01*
X13144482Y6235684D01*
Y6222988D01*
X13131789Y6210292D01*
X13106396D01*
X13093700Y6222988D01*
X13169875Y6210292D02*
X13195267D01*
X13182571D01*
Y6261075D01*
X13169875D01*
X13258746Y6184900D02*
X13271443D01*
X13284138Y6197596D01*
Y6261075D01*
X13246051D01*
X13233356Y6248380D01*
Y6222988D01*
X13246051Y6210292D01*
X13284138D01*
X13309531D02*
Y6261075D01*
X13347618D01*
X13360313Y6248380D01*
Y6210292D01*
X13398401Y6261075D02*
X13423793D01*
X13436488Y6248380D01*
Y6210292D01*
X13398401D01*
X13385706Y6222988D01*
X13398401Y6235684D01*
X13436488D01*
X13461880Y6210292D02*
X13487273D01*
X13474577D01*
Y6286467D01*
X13461880D01*
X13347684Y7086579D02*
X13334988Y7099275D01*
X13309596D01*
X13296899Y7086579D01*
Y7035796D01*
X13309596Y7023100D01*
X13334988D01*
X13347684Y7035796D01*
Y7061188D01*
X13322292D01*
X13373074Y7023100D02*
Y7099275D01*
X13423859Y7023100D01*
Y7099275D01*
X13449251D02*
Y7023100D01*
X13487338D01*
X13500034Y7035796D01*
Y7086579D01*
X13487338Y7099275D01*
X13449251D01*
X13284200Y7353275D02*
Y7302492D01*
X13309592Y7277100D01*
X13334982Y7302492D01*
Y7353275D01*
X13411159Y7340579D02*
X13398463Y7353275D01*
X13373071D01*
X13360374Y7340579D01*
Y7289796D01*
X13373071Y7277100D01*
X13398463D01*
X13411159Y7289796D01*
X13487334Y7340579D02*
X13474638Y7353275D01*
X13449248D01*
X13436551Y7340579D01*
Y7289796D01*
X13449248Y7277100D01*
X13474638D01*
X13487334Y7289796D01*
X13144482Y7607271D02*
X13131789Y7619967D01*
X13106396D01*
X13093700Y7607271D01*
Y7594575D01*
X13106396Y7581880D01*
X13131789D01*
X13144482Y7569184D01*
Y7556488D01*
X13131789Y7543792D01*
X13106396D01*
X13093700Y7556488D01*
X13169875Y7543792D02*
X13195267D01*
X13182571D01*
Y7594575D01*
X13169875D01*
X13258746Y7518400D02*
X13271443D01*
X13284138Y7531096D01*
Y7594575D01*
X13246051D01*
X13233356Y7581880D01*
Y7556488D01*
X13246051Y7543792D01*
X13284138D01*
X13309531D02*
Y7594575D01*
X13347618D01*
X13360313Y7581880D01*
Y7543792D01*
X13398401Y7594575D02*
X13423793D01*
X13436488Y7581880D01*
Y7543792D01*
X13398401D01*
X13385706Y7556488D01*
X13398401Y7569184D01*
X13436488D01*
X13461880Y7543792D02*
X13487273D01*
X13474577D01*
Y7619967D01*
X13461880D01*
X13309583Y8318479D02*
X13296889Y8331175D01*
X13271497D01*
X13258800Y8318479D01*
Y8305783D01*
X13271497Y8293088D01*
X13296889D01*
X13309583Y8280392D01*
Y8267696D01*
X13296889Y8255000D01*
X13271497D01*
X13258800Y8267696D01*
X13334975Y8331175D02*
Y8255000D01*
X13373064D01*
X13385759Y8267696D01*
Y8318479D01*
X13373064Y8331175D01*
X13334975D01*
X13449239D02*
X13423846D01*
X13411151Y8318479D01*
Y8267696D01*
X13423846Y8255000D01*
X13449239D01*
X13461934Y8267696D01*
Y8318479D01*
X13449239Y8331175D01*
X13296883Y8610579D02*
X13284187Y8623275D01*
X13258797D01*
X13246100Y8610579D01*
Y8559796D01*
X13258797Y8547100D01*
X13284187D01*
X13296883Y8559796D01*
X13322275Y8623275D02*
Y8547100D01*
X13373059D01*
X13398451Y8623275D02*
Y8547100D01*
Y8572492D01*
X13449234Y8623275D01*
X13411147Y8585188D01*
X13449234Y8547100D01*
X13246100Y8877275D02*
Y8826492D01*
X13271492Y8801100D01*
X13296883Y8826492D01*
Y8877275D01*
X13373059Y8864579D02*
X13360362Y8877275D01*
X13334972D01*
X13322275Y8864579D01*
Y8813796D01*
X13334972Y8801100D01*
X13360362D01*
X13373059Y8813796D01*
X13449234Y8864579D02*
X13436539Y8877275D01*
X13411147D01*
X13398451Y8864579D01*
Y8813796D01*
X13411147Y8801100D01*
X13436539D01*
X13449234Y8813796D01*
X13271483Y9131279D02*
X13258788Y9143975D01*
X13233395D01*
X13220700Y9131279D01*
Y9080496D01*
X13233395Y9067800D01*
X13258788D01*
X13271483Y9080496D01*
Y9105888D01*
X13246092D01*
X13296875Y9067800D02*
Y9143975D01*
X13347659Y9067800D01*
Y9143975D01*
X13373051D02*
Y9067800D01*
X13411139D01*
X13423834Y9080496D01*
Y9131279D01*
X13411139Y9143975D01*
X13373051D01*
X13855711Y6045179D02*
X13931888D01*
Y6007092D01*
X13919193Y5994396D01*
X13893800D01*
X13881104Y6007092D01*
Y6045179D01*
X13855711Y5930916D02*
X13931888D01*
X13893800Y5969004D01*
Y5918221D01*
X13855711Y7378679D02*
X13931888D01*
Y7340592D01*
X13919193Y7327896D01*
X13893800D01*
X13881104Y7340592D01*
Y7378679D01*
X13919193Y7302504D02*
X13931888Y7289808D01*
Y7264416D01*
X13919193Y7251721D01*
X13906496D01*
X13893800Y7264416D01*
Y7277112D01*
Y7264416D01*
X13881104Y7251721D01*
X13868408D01*
X13855711Y7264416D01*
Y7289808D01*
X13868408Y7302504D01*
X13830312Y4597379D02*
X13906488D01*
Y4559291D01*
X13893793Y4546596D01*
X13868401D01*
X13855704Y4559291D01*
Y4597379D01*
X13830312Y4470420D02*
Y4521204D01*
X13881096Y4470420D01*
X13893793D01*
X13906488Y4483116D01*
Y4508508D01*
X13893793Y4521204D01*
X13830312Y8775683D02*
X13906488D01*
Y8737596D01*
X13893793Y8724900D01*
X13868401D01*
X13855704Y8737596D01*
Y8775683D01*
X13830312Y8699508D02*
Y8674116D01*
Y8686812D01*
X13906488D01*
X13893793Y8699508D01*
%TF.MD5,7cdf19c25edc75a71ef405d066d45f91*%
M02*
