%TF.GenerationSoftware,Altium Limited,Altium Designer,22.4.2 (48)*%
G04 Layer_Physical_Order=2*
G04 Layer_Color=16711680*
%FSLAX45Y45*%
%MOMM*%
%TF.SameCoordinates,2FA726A9-CE4F-4E86-892B-79CA134EB5E5*%
%TF.FilePolarity,Positive*%
%TF.FileFunction,Copper,L2,Bot,Signal*%
%TF.Part,Single*%
G01*
G75*
%TA.AperFunction,Conductor*%
%ADD10C,0.20320*%
%ADD30C,0.38100*%
%TA.AperFunction,ComponentPad*%
%ADD31C,1.60000*%
%ADD32R,1.60000X1.60000*%
%ADD33C,0.65000*%
G04:AMPARAMS|DCode=34|XSize=1mm|YSize=1.8mm|CornerRadius=0.5mm|HoleSize=0mm|Usage=FLASHONLY|Rotation=0.000|XOffset=0mm|YOffset=0mm|HoleType=Round|Shape=RoundedRectangle|*
%AMROUNDEDRECTD34*
21,1,1.00000,0.80000,0,0,0.0*
21,1,0.00000,1.80000,0,0,0.0*
1,1,1.00000,0.00000,-0.40000*
1,1,1.00000,0.00000,-0.40000*
1,1,1.00000,0.00000,0.40000*
1,1,1.00000,0.00000,0.40000*
%
%ADD34ROUNDEDRECTD34*%
G04:AMPARAMS|DCode=35|XSize=1mm|YSize=2.1mm|CornerRadius=0.5mm|HoleSize=0mm|Usage=FLASHONLY|Rotation=0.000|XOffset=0mm|YOffset=0mm|HoleType=Round|Shape=RoundedRectangle|*
%AMROUNDEDRECTD35*
21,1,1.00000,1.10000,0,0,0.0*
21,1,0.00000,2.10000,0,0,0.0*
1,1,1.00000,0.00000,-0.55000*
1,1,1.00000,0.00000,-0.55000*
1,1,1.00000,0.00000,0.55000*
1,1,1.00000,0.00000,0.55000*
%
%ADD35ROUNDEDRECTD35*%
%ADD36C,1.95000*%
%ADD37R,1.95000X1.95000*%
%ADD38C,1.75000*%
%ADD39R,1.75000X1.75000*%
%TA.AperFunction,ViaPad*%
%ADD40C,1.27000*%
G36*
X14116051Y10471150D02*
Y4057650D01*
X13658850Y3600450D01*
X5911850D01*
X5327650Y4184650D01*
Y10680985D01*
X5505917Y10878017D01*
X6062454Y11434554D01*
X7067945Y11436350D01*
X13150850D01*
X14116051Y10471150D01*
D02*
G37*
%LPC*%
G36*
X7569200Y10744200D02*
X7099300D01*
Y10337800D01*
X7112000Y10325100D01*
X7581900D01*
Y10731500D01*
X7569200Y10744200D01*
D02*
G37*
G36*
X6042213Y10261119D02*
X6011191D01*
X5981225Y10253090D01*
X5954359Y10237579D01*
X5932423Y10215643D01*
X5916911Y10188776D01*
X5908882Y10158811D01*
Y10127788D01*
X5916911Y10097823D01*
X5932423Y10070956D01*
X5954359Y10049020D01*
X5981225Y10033509D01*
X6011191Y10025480D01*
X6042213D01*
X6072179Y10033509D01*
X6099045Y10049020D01*
X6120982Y10070956D01*
X6136493Y10097823D01*
X6144522Y10127788D01*
Y10158811D01*
X6136493Y10188776D01*
X6120982Y10215643D01*
X6099045Y10237579D01*
X6072179Y10253090D01*
X6042213Y10261119D01*
D02*
G37*
G36*
X10909300Y10381577D02*
X8216900D01*
X8205007Y10379212D01*
X8194925Y10372475D01*
X7953625Y10131175D01*
X7946888Y10121093D01*
X7944523Y10109200D01*
Y9156872D01*
X6345129Y7557478D01*
X6163020D01*
Y7644221D01*
X5927380D01*
Y7408581D01*
X6163020D01*
Y7495324D01*
X6358001D01*
X6369894Y7497689D01*
X6379976Y7504426D01*
X7997575Y9122025D01*
X8004312Y9132107D01*
X8006677Y9144000D01*
Y10096328D01*
X8229772Y10319423D01*
X10896428D01*
X11195723Y10020128D01*
Y9715672D01*
X10891998Y9411947D01*
X10890853Y9412608D01*
X10869535Y9418320D01*
X10847465D01*
X10826147Y9412608D01*
X10807033Y9401573D01*
X10791427Y9385967D01*
X10780392Y9366853D01*
X10774680Y9345535D01*
Y9323465D01*
X10780392Y9302147D01*
X10791427Y9283033D01*
X10807033Y9267427D01*
X10826147Y9256392D01*
X10847465Y9250680D01*
X10869535D01*
X10890853Y9256392D01*
X10909967Y9267427D01*
X10925573Y9283033D01*
X10936608Y9302147D01*
X10942320Y9323465D01*
Y9345535D01*
X10936608Y9366853D01*
X10935947Y9367998D01*
X11248775Y9680825D01*
X11255512Y9690907D01*
X11257877Y9702800D01*
Y10033000D01*
X11255512Y10044893D01*
X11248775Y10054975D01*
X10931275Y10372475D01*
X10921193Y10379212D01*
X10909300Y10381577D01*
D02*
G37*
G36*
X13627608Y9180820D02*
X13601193D01*
X13575677Y9173983D01*
X13552802Y9160776D01*
X13534125Y9142098D01*
X13520917Y9119222D01*
X13514079Y9093707D01*
Y9067293D01*
X13520917Y9041778D01*
X13534125Y9018902D01*
X13552802Y9000224D01*
X13575677Y8987017D01*
X13601193Y8980180D01*
X13627608D01*
X13653122Y8987017D01*
X13675998Y9000224D01*
X13694676Y9018902D01*
X13707883Y9041778D01*
X13714720Y9067293D01*
Y9093707D01*
X13707883Y9119222D01*
X13694676Y9142098D01*
X13675998Y9160776D01*
X13653122Y9173983D01*
X13627608Y9180820D01*
D02*
G37*
G36*
X13142834Y9443720D02*
X13120766D01*
X13099448Y9438008D01*
X13080333Y9426973D01*
X13064726Y9411367D01*
X13053693Y9392253D01*
X13047980Y9370935D01*
Y9348865D01*
X13053693Y9327547D01*
X13064726Y9308433D01*
X13080333Y9292827D01*
X13085309Y9289955D01*
Y9119677D01*
X13067633Y9109473D01*
X13052026Y9093867D01*
X13040993Y9074753D01*
X13035280Y9053435D01*
Y9031365D01*
X13040993Y9010047D01*
X13052026Y8990933D01*
X13067633Y8975327D01*
X13086748Y8964292D01*
X13108064Y8958580D01*
X13130135D01*
X13151453Y8964292D01*
X13170567Y8975327D01*
X13186172Y8990933D01*
X13197208Y9010047D01*
X13202921Y9031365D01*
Y9053435D01*
X13197208Y9074753D01*
X13186172Y9093867D01*
X13170567Y9109473D01*
X13165591Y9112345D01*
Y9282623D01*
X13183267Y9292827D01*
X13198872Y9308433D01*
X13209908Y9327547D01*
X13215620Y9348865D01*
Y9370935D01*
X13209908Y9392253D01*
X13198872Y9411367D01*
X13183267Y9426973D01*
X13164153Y9438008D01*
X13142834Y9443720D01*
D02*
G37*
G36*
X13639799Y8928812D02*
Y8851900D01*
X13716711D01*
X13712617Y8867183D01*
X13698741Y8891217D01*
X13679117Y8910841D01*
X13655083Y8924717D01*
X13639799Y8928812D01*
D02*
G37*
G36*
X13589000D02*
X13573717Y8924717D01*
X13549683Y8910841D01*
X13530058Y8891217D01*
X13516183Y8867183D01*
X13512088Y8851900D01*
X13589000D01*
Y8928812D01*
D02*
G37*
G36*
X13716711Y8801100D02*
X13639799D01*
Y8724188D01*
X13655083Y8728283D01*
X13679117Y8742159D01*
X13698741Y8761783D01*
X13712617Y8785817D01*
X13716711Y8801100D01*
D02*
G37*
G36*
X13589000D02*
X13512088D01*
X13516183Y8785817D01*
X13530058Y8761783D01*
X13549683Y8742159D01*
X13573717Y8728283D01*
X13589000Y8724188D01*
Y8801100D01*
D02*
G37*
G36*
X13714720Y8418820D02*
X13514079D01*
Y8218180D01*
X13714720D01*
Y8418820D01*
D02*
G37*
G36*
X13070659Y11344418D02*
X6918344D01*
X6906451Y11342052D01*
X6896369Y11335315D01*
X6886825Y11325772D01*
X6880088Y11315690D01*
X6877723Y11303797D01*
Y11303172D01*
X6404225Y10829675D01*
X6397488Y10819593D01*
X6395123Y10807700D01*
Y10055671D01*
X6100573Y9761120D01*
X5908882D01*
Y9525481D01*
X6144522D01*
Y9717171D01*
X6448175Y10020823D01*
X6454912Y10030906D01*
X6457277Y10042798D01*
Y10283850D01*
X6469051Y10291357D01*
X6469977Y10291234D01*
X6476142Y10282008D01*
X7280525Y9477625D01*
X7290607Y9470888D01*
X7302500Y9468523D01*
X7423823D01*
Y8943050D01*
X7422547Y8942708D01*
X7403433Y8931673D01*
X7387827Y8916067D01*
X7376792Y8896953D01*
X7371080Y8875635D01*
Y8853565D01*
X7376792Y8832247D01*
X7387827Y8813133D01*
X7403433Y8797527D01*
X7422547Y8786492D01*
X7443865Y8780780D01*
X7465935D01*
X7487253Y8786492D01*
X7506367Y8797527D01*
X7521973Y8813133D01*
X7533008Y8832247D01*
X7538720Y8853565D01*
Y8875635D01*
X7533008Y8896953D01*
X7521973Y8916067D01*
X7506367Y8931673D01*
X7487253Y8942708D01*
X7485977Y8943050D01*
Y9499600D01*
Y9715500D01*
X7483612Y9727393D01*
X7476875Y9737475D01*
X7028777Y10185572D01*
Y10360950D01*
X7030053Y10361292D01*
X7049167Y10372327D01*
X7064773Y10387933D01*
X7075808Y10407047D01*
X7081520Y10428365D01*
Y10450435D01*
X7075808Y10471753D01*
X7064773Y10490867D01*
X7049167Y10506473D01*
X7030053Y10517508D01*
X7008735Y10523220D01*
X6986665D01*
X6965347Y10517508D01*
X6946233Y10506473D01*
X6930627Y10490867D01*
X6919592Y10471753D01*
X6913880Y10450435D01*
Y10428365D01*
X6919592Y10407047D01*
X6930627Y10387933D01*
X6946233Y10372327D01*
X6965347Y10361292D01*
X6966623Y10360950D01*
Y10172700D01*
X6968988Y10160807D01*
X6975725Y10150725D01*
X7423823Y9702627D01*
Y9530677D01*
X7315373D01*
X7224105Y9621945D01*
X7231903Y9632107D01*
X7244747Y9624692D01*
X7266065Y9618980D01*
X7288135D01*
X7309453Y9624692D01*
X7328567Y9635727D01*
X7344173Y9651333D01*
X7355208Y9670447D01*
X7360920Y9691765D01*
Y9713835D01*
X7355208Y9735153D01*
X7344173Y9754267D01*
X7328567Y9769873D01*
X7309453Y9780908D01*
X7288135Y9786620D01*
X7266065D01*
X7244747Y9780908D01*
X7243603Y9780247D01*
X6660477Y10363372D01*
Y10564150D01*
X6661753Y10564492D01*
X6680867Y10575527D01*
X6696473Y10591133D01*
X6707508Y10610247D01*
X6713220Y10631565D01*
Y10653635D01*
X6707508Y10674953D01*
X6706847Y10676098D01*
X6807372Y10776623D01*
X9678677D01*
X9690569Y10778988D01*
X9700651Y10785725D01*
X10059849Y11144923D01*
X11023600D01*
Y10476277D01*
X11011867Y10471417D01*
X10856809Y10626475D01*
X10846727Y10633212D01*
X10834834Y10635577D01*
X9679650D01*
X9679308Y10636853D01*
X9668273Y10655967D01*
X9652667Y10671573D01*
X9633553Y10682608D01*
X9612235Y10688320D01*
X9590165D01*
X9568847Y10682608D01*
X9549733Y10671573D01*
X9534127Y10655967D01*
X9523092Y10636853D01*
X9517380Y10615535D01*
Y10593465D01*
X9523092Y10572147D01*
X9534127Y10553033D01*
X9549733Y10537427D01*
X9568847Y10526392D01*
X9590165Y10520680D01*
X9612235D01*
X9633553Y10526392D01*
X9652667Y10537427D01*
X9668273Y10553033D01*
X9679308Y10572147D01*
X9679650Y10573423D01*
X10821961D01*
X11066859Y10328525D01*
X11076941Y10321788D01*
X11088834Y10319423D01*
X12280728D01*
X12580023Y10020128D01*
Y8765250D01*
X12578747Y8764908D01*
X12559633Y8753873D01*
X12544027Y8738267D01*
X12540577Y8732291D01*
X12527877Y8735694D01*
Y9829800D01*
X12525512Y9841693D01*
X12518775Y9851775D01*
X12459947Y9910602D01*
X12460608Y9911747D01*
X12466320Y9933065D01*
Y9955135D01*
X12460608Y9976453D01*
X12449573Y9995567D01*
X12433967Y10011173D01*
X12414853Y10022208D01*
X12393535Y10027920D01*
X12371465D01*
X12350147Y10022208D01*
X12331033Y10011173D01*
X12315427Y9995567D01*
X12304392Y9976453D01*
X12298680Y9955135D01*
Y9933065D01*
X12304392Y9911747D01*
X12315427Y9892633D01*
X12331033Y9877027D01*
X12350147Y9865992D01*
X12371465Y9860280D01*
X12393535D01*
X12414853Y9865992D01*
X12415998Y9866653D01*
X12465723Y9816928D01*
Y9802494D01*
X12453023Y9799091D01*
X12449573Y9805067D01*
X12433967Y9820673D01*
X12414853Y9831708D01*
X12393535Y9837420D01*
X12371465D01*
X12350147Y9831708D01*
X12331033Y9820673D01*
X12315427Y9805067D01*
X12304392Y9785953D01*
X12298680Y9764635D01*
Y9742565D01*
X12304392Y9721247D01*
X12305053Y9720102D01*
X12157325Y9572375D01*
X12150588Y9562293D01*
X12148223Y9550400D01*
Y7366172D01*
X11607628Y6825577D01*
X11381063D01*
X11373735Y6838277D01*
X11381108Y6851047D01*
X11386820Y6872365D01*
Y6894435D01*
X11381108Y6915753D01*
X11370073Y6934867D01*
X11354467Y6950473D01*
X11335353Y6961508D01*
X11334077Y6961850D01*
Y7200900D01*
X11331712Y7212793D01*
X11324975Y7222875D01*
X11308677Y7239172D01*
Y8160148D01*
X11306312Y8172041D01*
X11299575Y8182123D01*
X11287671Y8194027D01*
X11287587Y8194083D01*
X11287530Y8194166D01*
X10627635Y8845687D01*
X10633777Y8857470D01*
X10653202Y8862675D01*
X10672316Y8873710D01*
X10687922Y8889316D01*
X10698957Y8908429D01*
X10700168Y8912950D01*
X10726270Y8914026D01*
X10726300Y8914033D01*
X10726330Y8914029D01*
X10919506Y8922369D01*
X10919602Y8922393D01*
X10921195Y8922709D01*
X10922578Y8922420D01*
X11596606Y8915676D01*
X11596762Y8915706D01*
X11596917Y8915675D01*
X11613752D01*
X11625645Y8918040D01*
X11635727Y8924777D01*
X11650095Y8939145D01*
X11656832Y8949227D01*
X11659197Y8961120D01*
Y8971886D01*
X11678253Y8976992D01*
X11697367Y8988027D01*
X11712973Y9003633D01*
X11717412Y9011323D01*
X11861800D01*
X11873693Y9013688D01*
X11883775Y9020425D01*
X11968002Y9104653D01*
X11969147Y9103992D01*
X11990465Y9098280D01*
X12012535D01*
X12033853Y9103992D01*
X12052967Y9115027D01*
X12068573Y9130633D01*
X12079608Y9149747D01*
X12085320Y9171065D01*
Y9193135D01*
X12079608Y9214453D01*
X12068573Y9233567D01*
X12052967Y9249173D01*
X12033853Y9260208D01*
X12012535Y9265920D01*
X11990465D01*
X11969147Y9260208D01*
X11950033Y9249173D01*
X11934427Y9233567D01*
X11923392Y9214453D01*
X11917680Y9193135D01*
Y9171065D01*
X11923392Y9149747D01*
X11924053Y9148602D01*
X11848928Y9073477D01*
X11727753D01*
X11724008Y9087453D01*
X11712973Y9106567D01*
X11697367Y9122173D01*
X11678253Y9133208D01*
X11656935Y9138920D01*
X11634865D01*
X11613547Y9133208D01*
X11594433Y9122173D01*
X11578827Y9106567D01*
X11567792Y9087453D01*
X11562080Y9066135D01*
Y9044065D01*
X11567792Y9022747D01*
X11578827Y9003633D01*
X11591879Y8990582D01*
X11588749Y8979869D01*
X11587395Y8977926D01*
X10935899Y8984444D01*
X10923203Y8984852D01*
X10922000Y8985010D01*
X10918748Y8984582D01*
X10916825Y8984466D01*
X10910703Y8984201D01*
X10723679Y8976126D01*
X10697845Y8975061D01*
X10687922Y8992249D01*
X10672316Y9007855D01*
X10653202Y9018890D01*
X10631884Y9024602D01*
X10609814D01*
X10588496Y9018890D01*
X10570754Y9008647D01*
X10559560Y9011933D01*
X10558060Y9012556D01*
X10559347Y9824123D01*
X10782300D01*
X10794193Y9826488D01*
X10804275Y9833225D01*
X10837702Y9866653D01*
X10838847Y9865992D01*
X10860165Y9860280D01*
X10882235D01*
X10903553Y9865992D01*
X10922667Y9877027D01*
X10938273Y9892633D01*
X10949308Y9911747D01*
X10955020Y9933065D01*
Y9955135D01*
X10949308Y9976453D01*
X10948647Y9977598D01*
X10994775Y10023725D01*
X11001512Y10033807D01*
X11003877Y10045700D01*
Y10146023D01*
X11001512Y10157916D01*
X10994775Y10167998D01*
X10942698Y10220075D01*
X10932616Y10226812D01*
X10920723Y10229177D01*
X8572500D01*
X8560607Y10226812D01*
X8550525Y10220075D01*
X8258425Y9927975D01*
X8251688Y9917893D01*
X8249323Y9906000D01*
Y9882850D01*
X8248047Y9882508D01*
X8228933Y9871473D01*
X8213327Y9855867D01*
X8202292Y9836753D01*
X8196580Y9815435D01*
Y9793365D01*
X8202292Y9772047D01*
X8213327Y9752933D01*
X8228933Y9737327D01*
X8248047Y9726292D01*
X8269365Y9720580D01*
X8291435D01*
X8312753Y9726292D01*
X8331867Y9737327D01*
X8347473Y9752933D01*
X8358508Y9772047D01*
X8364220Y9793365D01*
Y9815435D01*
X8358508Y9836753D01*
X8347473Y9855867D01*
X8331867Y9871473D01*
X8314318Y9881604D01*
X8313111Y9891106D01*
X8313270Y9894920D01*
X8585373Y10167023D01*
X8637906D01*
X8641309Y10154323D01*
X8635333Y10150873D01*
X8619727Y10135267D01*
X8608692Y10116153D01*
X8602980Y10094835D01*
Y10072765D01*
X8608692Y10051447D01*
X8619727Y10032333D01*
X8635333Y10016727D01*
X8654447Y10005692D01*
X8675765Y9999980D01*
X8697835D01*
X8719153Y10005692D01*
X8738267Y10016727D01*
X8753873Y10032333D01*
X8764908Y10051447D01*
X8768653Y10065423D01*
X10433723D01*
Y8066243D01*
X10436088Y8054350D01*
X10436738Y8053378D01*
X10435827Y8052467D01*
X10424792Y8033353D01*
X10424450Y8032077D01*
X9994900D01*
X9983007Y8029712D01*
X9972925Y8022975D01*
X9485627Y7535677D01*
X9474269Y7538720D01*
X9452199D01*
X9430881Y7533008D01*
X9411767Y7521973D01*
X9403677Y7513883D01*
X9390977Y7519143D01*
Y8514082D01*
X9597775Y8720880D01*
X9604512Y8730962D01*
X9606877Y8742854D01*
Y9802150D01*
X9608153Y9802492D01*
X9627267Y9813527D01*
X9642873Y9829133D01*
X9653908Y9848247D01*
X9659620Y9869565D01*
Y9891635D01*
X9653908Y9912953D01*
X9642873Y9932067D01*
X9627267Y9947673D01*
X9608153Y9958708D01*
X9586835Y9964420D01*
X9564765D01*
X9543447Y9958708D01*
X9524333Y9947673D01*
X9508727Y9932067D01*
X9497692Y9912953D01*
X9491980Y9891635D01*
Y9869565D01*
X9497692Y9848247D01*
X9508727Y9829133D01*
X9524333Y9813527D01*
X9543447Y9802492D01*
X9544723Y9802150D01*
Y8755727D01*
X9337925Y8548929D01*
X9331188Y8538847D01*
X9328823Y8526954D01*
Y7988945D01*
X9316123Y7985092D01*
X9312025Y7991225D01*
X8611847Y8691402D01*
X8612508Y8692547D01*
X8618220Y8713865D01*
Y8735935D01*
X8612508Y8757253D01*
X8601473Y8776367D01*
X8585867Y8791973D01*
X8566753Y8803008D01*
X8545435Y8808720D01*
X8523365D01*
X8502047Y8803008D01*
X8482933Y8791973D01*
X8467327Y8776367D01*
X8456292Y8757253D01*
X8450580Y8735935D01*
Y8713865D01*
X8456292Y8692547D01*
X8467327Y8673433D01*
X8482933Y8657827D01*
X8502047Y8646792D01*
X8523365Y8641080D01*
X8545435D01*
X8566753Y8646792D01*
X8567898Y8647453D01*
X9258973Y7956378D01*
Y6872950D01*
X9257697Y6872608D01*
X9238583Y6861573D01*
X9222977Y6845967D01*
X9211942Y6826853D01*
X9206230Y6805535D01*
Y6783465D01*
X9211942Y6762147D01*
X9222977Y6743033D01*
X9238583Y6727427D01*
X9257697Y6716392D01*
X9279015Y6710680D01*
X9301085D01*
X9322403Y6716392D01*
X9341517Y6727427D01*
X9357123Y6743033D01*
X9364383Y6755608D01*
X9377083Y6752205D01*
Y5819140D01*
X9379448Y5807247D01*
X9386185Y5797165D01*
X9917453Y5265898D01*
X9916792Y5264753D01*
X9911080Y5243435D01*
Y5221365D01*
X9916792Y5200047D01*
X9927827Y5180933D01*
X9943433Y5165327D01*
X9962547Y5154292D01*
X9983865Y5148580D01*
X10005935D01*
X10027253Y5154292D01*
X10046367Y5165327D01*
X10061973Y5180933D01*
X10073008Y5200047D01*
X10078720Y5221365D01*
Y5243435D01*
X10073008Y5264753D01*
X10061973Y5283867D01*
X10046367Y5299473D01*
X10027253Y5310508D01*
X10005935Y5316220D01*
X9983865D01*
X9962547Y5310508D01*
X9961402Y5309847D01*
X9439237Y5832012D01*
Y6832420D01*
X9450970Y6837280D01*
X10285753Y6002498D01*
X10285092Y6001353D01*
X10279380Y5980035D01*
Y5957965D01*
X10285092Y5936647D01*
X10296127Y5917533D01*
X10311733Y5901927D01*
X10330847Y5890892D01*
X10352165Y5885180D01*
X10374235D01*
X10395553Y5890892D01*
X10414667Y5901927D01*
X10430273Y5917533D01*
X10441308Y5936647D01*
X10447020Y5957965D01*
Y5980035D01*
X10441308Y6001353D01*
X10430273Y6020467D01*
X10414667Y6036073D01*
X10395553Y6047108D01*
X10374235Y6052820D01*
X10352165D01*
X10330847Y6047108D01*
X10329702Y6046447D01*
X9479877Y6896272D01*
Y7372583D01*
X9495587Y7376792D01*
X9514701Y7387827D01*
X9530307Y7403433D01*
X9541342Y7422547D01*
X9547054Y7443865D01*
Y7465935D01*
X9541342Y7487253D01*
X9535398Y7497548D01*
X10007772Y7969923D01*
X10424450D01*
X10424792Y7968647D01*
X10435827Y7949533D01*
X10451433Y7933927D01*
X10470547Y7922892D01*
X10491865Y7917180D01*
X10513935D01*
X10535253Y7922892D01*
X10554367Y7933927D01*
X10569973Y7949533D01*
X10581008Y7968647D01*
X10586720Y7989965D01*
Y8012035D01*
X10581008Y8033353D01*
X10569973Y8052467D01*
X10554367Y8068073D01*
X10535253Y8079108D01*
X10513935Y8084820D01*
X10495877D01*
Y8561706D01*
X10508577Y8565109D01*
X10512027Y8559133D01*
X10527633Y8543527D01*
X10546747Y8532492D01*
X10548023Y8532150D01*
Y8432800D01*
X10550388Y8420907D01*
X10557125Y8410825D01*
X11047753Y7920198D01*
X11047092Y7919053D01*
X11041380Y7897735D01*
Y7875665D01*
X11047092Y7854347D01*
X11058127Y7835233D01*
X11073733Y7819627D01*
X11092847Y7808592D01*
X11114165Y7802880D01*
X11136235D01*
X11157553Y7808592D01*
X11176667Y7819627D01*
X11192273Y7835233D01*
X11203308Y7854347D01*
X11209020Y7875665D01*
Y7897735D01*
X11203308Y7919053D01*
X11192273Y7938167D01*
X11176667Y7953773D01*
X11157553Y7964808D01*
X11136235Y7970520D01*
X11114165D01*
X11092847Y7964808D01*
X11091702Y7964147D01*
X10610177Y8445672D01*
Y8532150D01*
X10611453Y8532492D01*
X10630567Y8543527D01*
X10646173Y8559133D01*
X10657208Y8578247D01*
X10662920Y8599565D01*
Y8621635D01*
X10657208Y8642953D01*
X10646173Y8662067D01*
X10630567Y8677673D01*
X10611453Y8688708D01*
X10590135Y8694420D01*
X10568065D01*
X10546747Y8688708D01*
X10527633Y8677673D01*
X10512027Y8662067D01*
X10508577Y8656091D01*
X10495877Y8659494D01*
Y8884075D01*
X10508577Y8886601D01*
X10512133Y8878016D01*
X10524933Y8861335D01*
X10532083Y8852016D01*
X10532566Y8851645D01*
X10532819Y8851900D01*
X10532881Y8851895D01*
X11243802Y8149996D01*
X11246523Y8147276D01*
Y7226300D01*
X11248888Y7214407D01*
X11255625Y7204325D01*
X11271923Y7188028D01*
Y6961850D01*
X11270647Y6961508D01*
X11251533Y6950473D01*
X11235927Y6934867D01*
X11224892Y6915753D01*
X11219180Y6894435D01*
Y6872365D01*
X11224892Y6851047D01*
X11232265Y6838277D01*
X11224937Y6825577D01*
X11188076D01*
X11156277Y6857376D01*
Y7493000D01*
X11153912Y7504893D01*
X11147175Y7514975D01*
X10855075Y7807075D01*
X10844993Y7813812D01*
X10833100Y7816177D01*
X10087105D01*
X10085402Y7822535D01*
X10074367Y7841648D01*
X10058761Y7857254D01*
X10039647Y7868289D01*
X10018329Y7874001D01*
X9996259D01*
X9974941Y7868289D01*
X9955827Y7857254D01*
X9940221Y7841648D01*
X9929186Y7822535D01*
X9923474Y7801216D01*
Y7779146D01*
X9929186Y7757828D01*
X9940221Y7738715D01*
X9955827Y7723109D01*
X9974941Y7712073D01*
X9996259Y7706361D01*
X10018329D01*
X10039647Y7712073D01*
X10058761Y7723109D01*
X10074367Y7738715D01*
X10083205Y7754023D01*
X10820228D01*
X11092561Y7481689D01*
X11091882Y7470560D01*
X11079960Y7466613D01*
X10851907Y7694665D01*
X10851907Y7694666D01*
X10846515Y7700057D01*
X10846515Y7700058D01*
X10840119Y7706453D01*
X10830037Y7713190D01*
X10818144Y7715555D01*
X10591012D01*
X10589801Y7717367D01*
X10579719Y7724104D01*
X10576697Y7724705D01*
X10576523Y7724805D01*
X10575521Y7724939D01*
X10567826Y7726469D01*
X10566490D01*
X10565502Y7726273D01*
X10564504Y7726406D01*
X10563857Y7726365D01*
X10557649Y7724711D01*
X10554597Y7724104D01*
X10554085Y7723762D01*
X10552140Y7723244D01*
X10542509Y7715876D01*
X10542323Y7715555D01*
X10396027D01*
X10384135Y7713190D01*
X10374053Y7706453D01*
X10280577Y7612977D01*
X10060650D01*
X10060308Y7614253D01*
X10049273Y7633367D01*
X10033667Y7648973D01*
X10014553Y7660008D01*
X9993235Y7665720D01*
X9971165D01*
X9949847Y7660008D01*
X9930733Y7648973D01*
X9915127Y7633367D01*
X9904092Y7614253D01*
X9898380Y7592935D01*
Y7570865D01*
X9904092Y7549547D01*
X9915127Y7530433D01*
X9930733Y7514827D01*
X9949847Y7503792D01*
X9971165Y7498080D01*
X9993235D01*
X10014553Y7503792D01*
X10033667Y7514827D01*
X10049273Y7530433D01*
X10060308Y7549547D01*
X10060650Y7550823D01*
X10293449D01*
X10305342Y7553188D01*
X10315424Y7559925D01*
X10408900Y7653401D01*
X10590301D01*
X10595561Y7640701D01*
X10588227Y7633367D01*
X10577192Y7614253D01*
X10571480Y7592935D01*
Y7570865D01*
X10577192Y7549547D01*
X10587893Y7531012D01*
X10579773Y7517689D01*
X10578942Y7515419D01*
X10577599Y7513409D01*
X10576877Y7509779D01*
X10575604Y7506302D01*
X10575705Y7503886D01*
X10575233Y7501516D01*
X10575233Y7484682D01*
Y7063182D01*
X10371298Y6859247D01*
X10370153Y6859908D01*
X10348835Y6865620D01*
X10326765D01*
X10305447Y6859908D01*
X10286333Y6848873D01*
X10270727Y6833267D01*
X10259692Y6814153D01*
X10253980Y6792835D01*
Y6770765D01*
X10259692Y6749447D01*
X10270727Y6730333D01*
X10286333Y6714727D01*
X10305447Y6703692D01*
X10326765Y6697980D01*
X10348835D01*
X10370153Y6703692D01*
X10389267Y6714727D01*
X10404873Y6730333D01*
X10415908Y6749447D01*
X10421620Y6770765D01*
Y6792835D01*
X10415908Y6814153D01*
X10415247Y6815298D01*
X10628285Y7028335D01*
X10635022Y7038417D01*
X10637387Y7050310D01*
Y7486999D01*
X10644265Y7498080D01*
X10666335D01*
X10687653Y7503792D01*
X10706767Y7514827D01*
X10722373Y7530433D01*
X10733408Y7549547D01*
X10739120Y7570865D01*
Y7592935D01*
X10733408Y7614253D01*
X10722373Y7633367D01*
X10715039Y7640701D01*
X10720299Y7653401D01*
X10805272D01*
X10807958Y7650715D01*
X10807959Y7650714D01*
X10924809Y7533864D01*
X10923619Y7530990D01*
X10918663Y7522050D01*
X10898754Y7516715D01*
X10879641Y7505680D01*
X10864035Y7490074D01*
X10853000Y7470961D01*
X10847288Y7449643D01*
Y7427573D01*
X10853000Y7406254D01*
X10864035Y7387141D01*
X10879641Y7371535D01*
X10892114Y7364334D01*
X10891091Y7354526D01*
X10891241Y7352901D01*
X10890923Y7351302D01*
X10890923Y7334468D01*
Y6774753D01*
X10876947Y6771008D01*
X10857833Y6759973D01*
X10842227Y6744367D01*
X10831192Y6725253D01*
X10825480Y6703935D01*
Y6681865D01*
X10831192Y6660547D01*
X10842227Y6641433D01*
X10857833Y6625827D01*
X10876947Y6614792D01*
X10898265Y6609080D01*
X10920335D01*
X10941653Y6614792D01*
X10958901Y6624750D01*
X11306425Y6277225D01*
X11316507Y6270488D01*
X11328400Y6268123D01*
X11857712D01*
X11862973Y6255423D01*
X11631637Y6024087D01*
X11624901Y6014005D01*
X11622535Y6002112D01*
Y5963920D01*
X11622165D01*
X11600847Y5958208D01*
X11581733Y5947173D01*
X11566127Y5931567D01*
X11555092Y5912453D01*
X11549380Y5891135D01*
Y5869065D01*
X11555092Y5847747D01*
X11566127Y5828633D01*
X11581733Y5813027D01*
X11600847Y5801992D01*
X11622165Y5796280D01*
X11644235D01*
X11665553Y5801992D01*
X11684667Y5813027D01*
X11700273Y5828633D01*
X11711308Y5847747D01*
X11717020Y5869065D01*
Y5891135D01*
X11711308Y5912453D01*
X11700273Y5931567D01*
X11684689Y5947150D01*
Y5989240D01*
X11917202Y6221753D01*
X11918347Y6221092D01*
X11939665Y6215380D01*
X11961735D01*
X11983053Y6221092D01*
X12002167Y6232127D01*
X12017773Y6247733D01*
X12028808Y6266847D01*
X12034520Y6288165D01*
Y6310235D01*
X12028808Y6331553D01*
X12017773Y6350667D01*
X12002167Y6366273D01*
X11983053Y6377308D01*
X11961735Y6383020D01*
X11939665D01*
X11918347Y6377308D01*
X11899233Y6366273D01*
X11883627Y6350667D01*
X11872592Y6331553D01*
X11872250Y6330277D01*
X11341272D01*
X10992394Y6679156D01*
X10993120Y6681865D01*
Y6703935D01*
X10987408Y6725253D01*
X10976373Y6744367D01*
X10960767Y6759973D01*
X10953077Y6764412D01*
Y7334467D01*
X10953077Y7349684D01*
X10953939Y7357949D01*
X10963461Y7360500D01*
X10982574Y7371535D01*
X10998180Y7387141D01*
X11009215Y7406254D01*
X11012036Y7416779D01*
X11026761Y7423305D01*
X11029690Y7421739D01*
X11030623Y7420327D01*
Y6781003D01*
X11032988Y6769110D01*
X11039725Y6759028D01*
X11191328Y6607425D01*
X11201410Y6600688D01*
X11213303Y6598323D01*
X11557000D01*
X11568893Y6600688D01*
X11578975Y6607425D01*
X12518775Y7547225D01*
X12525512Y7557307D01*
X12527877Y7569200D01*
Y8637906D01*
X12540577Y8641309D01*
X12544027Y8635333D01*
X12559633Y8619727D01*
X12578747Y8608692D01*
X12600065Y8602980D01*
X12622135D01*
X12643453Y8608692D01*
X12644598Y8609353D01*
X12668923Y8585027D01*
Y4635443D01*
X12197677D01*
Y4768850D01*
X12195312Y4780743D01*
X12188575Y4790825D01*
X10216477Y6762922D01*
Y7213600D01*
X10214112Y7225493D01*
X10207375Y7235575D01*
X10149510Y7293440D01*
X10152800Y7299139D01*
X10158512Y7320457D01*
Y7342527D01*
X10152800Y7363845D01*
X10141765Y7382959D01*
X10126159Y7398565D01*
X10107045Y7409600D01*
X10085727Y7415312D01*
X10063657D01*
X10042339Y7409600D01*
X10023225Y7398565D01*
X10007619Y7382959D01*
X9996584Y7363845D01*
X9990872Y7342527D01*
Y7320457D01*
X9996584Y7299139D01*
X10007619Y7280025D01*
X10023225Y7264419D01*
X10042339Y7253384D01*
X10063657Y7247672D01*
X10085727D01*
X10102803Y7252248D01*
X10154323Y7200728D01*
Y6750050D01*
X10156688Y6738157D01*
X10163425Y6728075D01*
X12135523Y4755978D01*
Y4635443D01*
X12007177D01*
Y4699000D01*
X12004812Y4710893D01*
X11998075Y4720975D01*
X9962477Y6756572D01*
Y7055547D01*
X9976453Y7059292D01*
X9995567Y7070327D01*
X10011173Y7085933D01*
X10022208Y7105047D01*
X10027920Y7126365D01*
Y7148435D01*
X10022208Y7169753D01*
X10011173Y7188867D01*
X9995567Y7204473D01*
X9976453Y7215508D01*
X9955135Y7221220D01*
X9933065D01*
X9911747Y7215508D01*
X9892633Y7204473D01*
X9877027Y7188867D01*
X9865992Y7169753D01*
X9860280Y7148435D01*
Y7126365D01*
X9865992Y7105047D01*
X9877027Y7085933D01*
X9892633Y7070327D01*
X9900323Y7065888D01*
Y6743700D01*
X9902688Y6731807D01*
X9909425Y6721725D01*
X11945023Y4686128D01*
Y4635443D01*
X11493500D01*
Y4610043D01*
Y3708343D01*
X12649200D01*
X12661900Y3695643D01*
X12671671Y3705414D01*
X12688965Y3700780D01*
X12711035D01*
X12732353Y3706492D01*
X12751467Y3717527D01*
X12767073Y3733133D01*
X12778108Y3752247D01*
X12783820Y3773565D01*
Y3795635D01*
X12778108Y3816953D01*
X12767073Y3836067D01*
X12751467Y3851673D01*
X12732353Y3862708D01*
X12731077Y3863050D01*
Y8597900D01*
X12728712Y8609793D01*
X12721975Y8619875D01*
X12688547Y8653302D01*
X12689208Y8654447D01*
X12694920Y8675765D01*
Y8697835D01*
X12689208Y8719153D01*
X12678173Y8738267D01*
X12662567Y8753873D01*
X12643453Y8764908D01*
X12642177Y8765250D01*
Y10033000D01*
X12639812Y10044893D01*
X12633075Y10054975D01*
X12315575Y10372475D01*
X12305493Y10379212D01*
X12293600Y10381577D01*
X11101707D01*
X11081017Y10402267D01*
X11085877Y10414000D01*
X12941299D01*
X12979401Y10452100D01*
Y11144923D01*
X13004628D01*
X13316623Y10832928D01*
Y8498550D01*
X13315347Y8498208D01*
X13296233Y8487173D01*
X13280627Y8471567D01*
X13269592Y8452453D01*
X13263879Y8431135D01*
Y8409065D01*
X13269592Y8387747D01*
X13280627Y8368633D01*
X13296233Y8353027D01*
X13315347Y8341992D01*
X13336665Y8336280D01*
X13358736D01*
X13380054Y8341992D01*
X13399167Y8353027D01*
X13414774Y8368633D01*
X13425809Y8387747D01*
X13431520Y8409065D01*
Y8431135D01*
X13425809Y8452453D01*
X13414774Y8471567D01*
X13399167Y8487173D01*
X13380054Y8498208D01*
X13378777Y8498550D01*
Y8746881D01*
X13391476Y8751473D01*
X13524873Y8618076D01*
X13520917Y8611222D01*
X13514079Y8585707D01*
Y8559293D01*
X13520917Y8533778D01*
X13534125Y8510902D01*
X13552802Y8492224D01*
X13575677Y8479017D01*
X13601193Y8472180D01*
X13627608D01*
X13653122Y8479017D01*
X13675998Y8492224D01*
X13694676Y8510902D01*
X13707883Y8533778D01*
X13714720Y8559293D01*
Y8585707D01*
X13707883Y8611222D01*
X13694676Y8634098D01*
X13675998Y8652776D01*
X13653122Y8665983D01*
X13627608Y8672820D01*
X13601193D01*
X13575677Y8665983D01*
X13568823Y8662026D01*
X13441283Y8789568D01*
Y10840769D01*
X13438916Y10852662D01*
X13432179Y10862744D01*
X13046149Y11248775D01*
X13036066Y11255512D01*
X13024174Y11257877D01*
X6997700D01*
X6985807Y11255512D01*
X6975725Y11248775D01*
X6476142Y10749192D01*
X6469977Y10739966D01*
X6469051Y10739843D01*
X6457277Y10747350D01*
Y10794828D01*
X6930775Y11268325D01*
X6937512Y11278407D01*
X6938279Y11282263D01*
X13057787D01*
X13799223Y10540828D01*
Y8153572D01*
X13665028Y8019377D01*
X13271672D01*
X13099377Y8191672D01*
Y8427147D01*
X13113353Y8430892D01*
X13132468Y8441927D01*
X13148073Y8457533D01*
X13159108Y8476647D01*
X13164819Y8497965D01*
Y8520035D01*
X13159108Y8541353D01*
X13148073Y8560467D01*
X13132468Y8576073D01*
X13113353Y8587108D01*
X13092035Y8592820D01*
X13069965D01*
X13048647Y8587108D01*
X13029533Y8576073D01*
X13013927Y8560467D01*
X13002892Y8541353D01*
X12997180Y8520035D01*
Y8497965D01*
X13002892Y8476647D01*
X13013927Y8457533D01*
X13029533Y8441927D01*
X13037222Y8437488D01*
Y8178800D01*
X13039587Y8166907D01*
X13046326Y8156825D01*
X13236826Y7966325D01*
X13246907Y7959588D01*
X13258800Y7957223D01*
X13677901D01*
X13689793Y7959588D01*
X13699875Y7966325D01*
X13852275Y8118725D01*
X13859012Y8128807D01*
X13861377Y8140700D01*
Y10553700D01*
X13859012Y10565593D01*
X13852275Y10575675D01*
X13092635Y11335315D01*
X13082552Y11342052D01*
X13070659Y11344418D01*
D02*
G37*
G36*
X6060711Y8144220D02*
X6029689D01*
X5999723Y8136191D01*
X5972857Y8120679D01*
X5950921Y8098743D01*
X5935409Y8071877D01*
X5927380Y8041911D01*
Y8010889D01*
X5935409Y7980923D01*
X5950921Y7954057D01*
X5972857Y7932121D01*
X5999723Y7916609D01*
X6029689Y7908580D01*
X6060711D01*
X6090677Y7916609D01*
X6117543Y7932121D01*
X6139479Y7954057D01*
X6154991Y7980923D01*
X6163020Y8010889D01*
Y8041911D01*
X6154991Y8071877D01*
X6139479Y8098743D01*
X6117543Y8120679D01*
X6090677Y8136191D01*
X6060711Y8144220D01*
D02*
G37*
G36*
X12952335Y7979360D02*
X12930264D01*
X12908948Y7973648D01*
X12889833Y7962613D01*
X12874226Y7947007D01*
X12863193Y7927893D01*
X12857480Y7906575D01*
Y7884505D01*
X12863193Y7863187D01*
X12874226Y7844073D01*
X12889833Y7828467D01*
X12908948Y7817432D01*
X12930264Y7811720D01*
X12952335D01*
X12973653Y7817432D01*
X12992767Y7828467D01*
X13008372Y7844073D01*
X13008693Y7844628D01*
X13903793D01*
X13904591Y7841647D01*
X13915627Y7822533D01*
X13931233Y7806927D01*
X13950346Y7795892D01*
X13971664Y7790180D01*
X13993735D01*
X14015053Y7795892D01*
X14034167Y7806927D01*
X14049773Y7822533D01*
X14060808Y7841647D01*
X14066521Y7862965D01*
Y7885035D01*
X14060808Y7906353D01*
X14049773Y7925467D01*
X14034167Y7941073D01*
X14015053Y7952108D01*
X13993735Y7957820D01*
X13971664D01*
X13950346Y7952108D01*
X13931233Y7941073D01*
X13915627Y7925467D01*
X13915306Y7924911D01*
X13020207D01*
X13019408Y7927893D01*
X13008372Y7947007D01*
X12992767Y7962613D01*
X12973653Y7973648D01*
X12952335Y7979360D01*
D02*
G37*
G36*
X13665707Y7656820D02*
X13639293D01*
X13613779Y7649983D01*
X13590903Y7636776D01*
X13572224Y7618098D01*
X13559016Y7595222D01*
X13552180Y7569707D01*
Y7543293D01*
X13559016Y7517778D01*
X13572224Y7494902D01*
X13590903Y7476224D01*
X13613779Y7463017D01*
X13639293Y7456180D01*
X13665707D01*
X13691222Y7463017D01*
X13714098Y7476224D01*
X13732776Y7494902D01*
X13745982Y7517778D01*
X13752820Y7543293D01*
Y7569707D01*
X13745982Y7595222D01*
X13732776Y7618098D01*
X13714098Y7636776D01*
X13691222Y7649983D01*
X13665707Y7656820D01*
D02*
G37*
G36*
X13677901Y7404812D02*
Y7327900D01*
X13754813D01*
X13750717Y7343183D01*
X13736841Y7367217D01*
X13717216Y7386841D01*
X13693182Y7400717D01*
X13677901Y7404812D01*
D02*
G37*
G36*
X13627100D02*
X13611816Y7400717D01*
X13587782Y7386841D01*
X13568159Y7367217D01*
X13554283Y7343183D01*
X13550188Y7327900D01*
X13627100D01*
Y7404812D01*
D02*
G37*
G36*
X8227935Y7602220D02*
X8205865D01*
X8184547Y7596508D01*
X8165433Y7585473D01*
X8149827Y7569867D01*
X8138792Y7550753D01*
X8133080Y7529435D01*
Y7507365D01*
X8138792Y7486047D01*
X8149827Y7466933D01*
X8165433Y7451327D01*
X8184547Y7440292D01*
X8205865Y7434580D01*
X8227935D01*
X8249253Y7440292D01*
X8250398Y7440953D01*
X8352313Y7339037D01*
X8362395Y7332301D01*
X8374288Y7329935D01*
X8374380D01*
Y7329565D01*
X8380092Y7308247D01*
X8391127Y7289133D01*
X8406733Y7273527D01*
X8425847Y7262492D01*
X8447165Y7256780D01*
X8469235D01*
X8490553Y7262492D01*
X8509667Y7273527D01*
X8525273Y7289133D01*
X8536308Y7308247D01*
X8542020Y7329565D01*
Y7351635D01*
X8536308Y7372953D01*
X8525273Y7392067D01*
X8509667Y7407673D01*
X8490553Y7418708D01*
X8469235Y7424420D01*
X8447165D01*
X8425847Y7418708D01*
X8406733Y7407673D01*
X8391150Y7392089D01*
X8387160D01*
X8294347Y7484902D01*
X8295008Y7486047D01*
X8300720Y7507365D01*
Y7529435D01*
X8295008Y7550753D01*
X8283973Y7569867D01*
X8268367Y7585473D01*
X8249253Y7596508D01*
X8227935Y7602220D01*
D02*
G37*
G36*
X13754813Y7277100D02*
X13677901D01*
Y7200188D01*
X13693182Y7204283D01*
X13717216Y7218159D01*
X13736841Y7237783D01*
X13750717Y7261817D01*
X13754813Y7277100D01*
D02*
G37*
G36*
X13627100D02*
X13550188D01*
X13554283Y7261817D01*
X13568159Y7237783D01*
X13587782Y7218159D01*
X13611816Y7204283D01*
X13627100Y7200188D01*
Y7277100D01*
D02*
G37*
G36*
X13752820Y7148820D02*
X13552180D01*
Y6948180D01*
X13752820D01*
Y7148820D01*
D02*
G37*
G36*
X13663535Y6789420D02*
X13641466D01*
X13620148Y6783708D01*
X13601033Y6772673D01*
X13585426Y6757067D01*
X13574393Y6737953D01*
X13568680Y6716635D01*
Y6694565D01*
X13574393Y6673247D01*
X13585426Y6654133D01*
X13601033Y6638527D01*
X13620148Y6627492D01*
X13641466Y6621780D01*
X13663535D01*
X13676167Y6625165D01*
X13875996Y6425335D01*
X13864827Y6414167D01*
X13853792Y6395053D01*
X13848080Y6373735D01*
Y6351665D01*
X13853792Y6330347D01*
X13864827Y6311233D01*
X13880434Y6295627D01*
X13899547Y6284592D01*
X13920865Y6278880D01*
X13942935D01*
X13964253Y6284592D01*
X13983366Y6295627D01*
X13998973Y6311233D01*
X14010008Y6330347D01*
X14015720Y6351665D01*
Y6373735D01*
X14010008Y6395053D01*
X13998973Y6414167D01*
X13983366Y6429773D01*
X13969769Y6437623D01*
X13968987Y6441561D01*
X13960284Y6454584D01*
X13732935Y6681933D01*
X13736320Y6694565D01*
Y6716635D01*
X13730608Y6737953D01*
X13719572Y6757067D01*
X13703967Y6772673D01*
X13684853Y6783708D01*
X13663535Y6789420D01*
D02*
G37*
G36*
X13665707Y6310620D02*
X13639293D01*
X13613779Y6303783D01*
X13590903Y6290576D01*
X13572224Y6271898D01*
X13559016Y6249022D01*
X13552180Y6223507D01*
Y6197093D01*
X13559016Y6171578D01*
X13572224Y6148702D01*
X13590903Y6130024D01*
X13613779Y6116817D01*
X13639293Y6109980D01*
X13665707D01*
X13691222Y6116817D01*
X13714098Y6130024D01*
X13732776Y6148702D01*
X13745982Y6171578D01*
X13752820Y6197093D01*
Y6223507D01*
X13745982Y6249022D01*
X13732776Y6271898D01*
X13714098Y6290576D01*
X13691222Y6303783D01*
X13665707Y6310620D01*
D02*
G37*
G36*
X13677901Y6058612D02*
Y5981700D01*
X13754813D01*
X13750717Y5996983D01*
X13736841Y6021017D01*
X13717216Y6040641D01*
X13693182Y6054517D01*
X13677901Y6058612D01*
D02*
G37*
G36*
X13627100D02*
X13611816Y6054517D01*
X13587782Y6040641D01*
X13568159Y6021017D01*
X13554283Y5996983D01*
X13550188Y5981700D01*
X13627100D01*
Y6058612D01*
D02*
G37*
G36*
X12355435Y6700520D02*
X12333365D01*
X12312047Y6694808D01*
X12292933Y6683773D01*
X12277327Y6668167D01*
X12266292Y6649053D01*
X12260580Y6627735D01*
Y6605665D01*
X12266292Y6584347D01*
X12277327Y6565233D01*
X12292933Y6549627D01*
X12312047Y6538592D01*
X12313323Y6538250D01*
Y6312072D01*
X11971498Y5970247D01*
X11970353Y5970908D01*
X11949035Y5976620D01*
X11926965D01*
X11905647Y5970908D01*
X11886533Y5959873D01*
X11870927Y5944267D01*
X11859892Y5925153D01*
X11854180Y5903835D01*
Y5881765D01*
X11859892Y5860447D01*
X11870927Y5841333D01*
X11886533Y5825727D01*
X11905647Y5814692D01*
X11926965Y5808980D01*
X11949035D01*
X11970353Y5814692D01*
X11989467Y5825727D01*
X12005073Y5841333D01*
X12016108Y5860447D01*
X12021820Y5881765D01*
Y5903835D01*
X12016108Y5925153D01*
X12015447Y5926298D01*
X12366375Y6277225D01*
X12373112Y6287307D01*
X12375477Y6299200D01*
Y6538250D01*
X12376753Y6538592D01*
X12395867Y6549627D01*
X12411473Y6565233D01*
X12422508Y6584347D01*
X12428220Y6605665D01*
Y6627735D01*
X12422508Y6649053D01*
X12411473Y6668167D01*
X12395867Y6683773D01*
X12376753Y6694808D01*
X12355435Y6700520D01*
D02*
G37*
G36*
X13754813Y5930900D02*
X13677901D01*
Y5853988D01*
X13693182Y5858083D01*
X13717216Y5871959D01*
X13736841Y5891583D01*
X13750717Y5915617D01*
X13754813Y5930900D01*
D02*
G37*
G36*
X13627100D02*
X13550188D01*
X13554283Y5915617D01*
X13568159Y5891583D01*
X13587782Y5871959D01*
X13611816Y5858083D01*
X13627100Y5853988D01*
Y5930900D01*
D02*
G37*
G36*
X13752820Y5802620D02*
X13552180D01*
Y5601980D01*
X13752820D01*
Y5802620D01*
D02*
G37*
G36*
X6271000Y5129400D02*
X6183500D01*
Y5041900D01*
X6271000D01*
Y5129400D01*
D02*
G37*
G36*
X6132700D02*
X6045200D01*
Y5041900D01*
X6132700D01*
Y5129400D01*
D02*
G37*
G36*
X7672295Y5124320D02*
X7643905D01*
X7616483Y5116972D01*
X7591897Y5102777D01*
X7571823Y5082703D01*
X7557628Y5058117D01*
X7550280Y5030695D01*
Y5002305D01*
X7557628Y4974883D01*
X7571823Y4950297D01*
X7591897Y4930223D01*
X7616483Y4916028D01*
X7643905Y4908680D01*
X7672295D01*
X7699717Y4916028D01*
X7724303Y4930223D01*
X7744377Y4950297D01*
X7758572Y4974883D01*
X7765920Y5002305D01*
Y5030695D01*
X7758572Y5058117D01*
X7744377Y5082703D01*
X7724303Y5102777D01*
X7699717Y5116972D01*
X7672295Y5124320D01*
D02*
G37*
G36*
X6271000Y4991100D02*
X6183500D01*
Y4903600D01*
X6271000D01*
Y4991100D01*
D02*
G37*
G36*
X6132700D02*
X6045200D01*
Y4903600D01*
X6132700D01*
Y4991100D01*
D02*
G37*
G36*
X13665199Y4979112D02*
Y4902200D01*
X13742113D01*
X13738017Y4917483D01*
X13724141Y4941517D01*
X13704517Y4961141D01*
X13680482Y4975017D01*
X13665199Y4979112D01*
D02*
G37*
G36*
X13614400D02*
X13599117Y4975017D01*
X13575082Y4961141D01*
X13555460Y4941517D01*
X13541583Y4917483D01*
X13537488Y4902200D01*
X13614400D01*
Y4979112D01*
D02*
G37*
G36*
X13742113Y4851400D02*
X13665199D01*
Y4774488D01*
X13680482Y4778583D01*
X13704517Y4792459D01*
X13724141Y4812083D01*
X13738017Y4836117D01*
X13742113Y4851400D01*
D02*
G37*
G36*
X13614400D02*
X13537488D01*
X13541583Y4836117D01*
X13555460Y4812083D01*
X13575082Y4792459D01*
X13599117Y4778583D01*
X13614400Y4774488D01*
Y4851400D01*
D02*
G37*
G36*
X13653008Y4723120D02*
X13626593D01*
X13601077Y4716283D01*
X13578201Y4703076D01*
X13559525Y4684398D01*
X13546317Y4661522D01*
X13539481Y4636007D01*
Y4609593D01*
X13546317Y4584078D01*
X13559525Y4561202D01*
X13578201Y4542524D01*
X13601077Y4529317D01*
X13626593Y4522480D01*
X13653008D01*
X13678522Y4529317D01*
X13701398Y4542524D01*
X13720076Y4561202D01*
X13733282Y4584078D01*
X13740120Y4609593D01*
Y4636007D01*
X13733282Y4661522D01*
X13720076Y4684398D01*
X13701398Y4703076D01*
X13678522Y4716283D01*
X13653008Y4723120D01*
D02*
G37*
G36*
Y4469120D02*
X13626593D01*
X13601077Y4462283D01*
X13578201Y4449076D01*
X13559525Y4430398D01*
X13546317Y4407522D01*
X13539481Y4382007D01*
Y4355593D01*
X13546317Y4330078D01*
X13559525Y4307202D01*
X13578201Y4288524D01*
X13601077Y4275317D01*
X13626593Y4268480D01*
X13653008D01*
X13678522Y4275317D01*
X13701398Y4288524D01*
X13720076Y4307202D01*
X13733282Y4330078D01*
X13740120Y4355593D01*
Y4382007D01*
X13733282Y4407522D01*
X13720076Y4430398D01*
X13701398Y4449076D01*
X13678522Y4462283D01*
X13653008Y4469120D01*
D02*
G37*
G36*
X13740120Y4215120D02*
X13539481D01*
Y4014480D01*
X13740120D01*
Y4215120D01*
D02*
G37*
%LPD*%
G36*
X10011017Y11183990D02*
X9665804Y10838777D01*
X6794500D01*
X6782607Y10836412D01*
X6772525Y10829675D01*
X6662898Y10720047D01*
X6661753Y10720708D01*
X6640435Y10726420D01*
X6618365D01*
X6597047Y10720708D01*
X6577933Y10709673D01*
X6562327Y10694067D01*
X6551292Y10674953D01*
X6545580Y10653635D01*
Y10631565D01*
X6551292Y10610247D01*
X6562327Y10591133D01*
X6577933Y10575527D01*
X6597047Y10564492D01*
X6598323Y10564150D01*
Y10350500D01*
X6600688Y10338607D01*
X6607425Y10328525D01*
X7199653Y9736297D01*
X7198992Y9735153D01*
X7193280Y9713835D01*
Y9691765D01*
X7198992Y9670447D01*
X7206407Y9657603D01*
X7196245Y9649805D01*
X6529194Y10316856D01*
Y10714344D01*
X7010572Y11195723D01*
X10006156D01*
X10011017Y11183990D01*
D02*
G37*
G36*
X10808201Y10164148D02*
X10811017Y10154323D01*
X10800712Y10136473D01*
X10798328Y10127577D01*
X8758312D01*
X8753873Y10135267D01*
X8738267Y10150873D01*
X8732291Y10154323D01*
X8735694Y10167023D01*
X10807010D01*
X10808201Y10164148D01*
D02*
G37*
G36*
X10811747Y10052653D02*
X10827353Y10037047D01*
X10833726Y10033368D01*
X10833251Y10018977D01*
X10819733Y10011173D01*
X10804127Y9995567D01*
X10793092Y9976453D01*
X10787380Y9955135D01*
Y9933065D01*
X10793092Y9911747D01*
X10793753Y9910602D01*
X10769428Y9886277D01*
X10540203D01*
X10528310Y9883912D01*
X10518228Y9877175D01*
X10512277Y9871223D01*
X10512276Y9871222D01*
X10512275Y9871221D01*
X10508577Y9867523D01*
X10499793Y9869728D01*
X10495877Y9872400D01*
Y10065423D01*
X10804375D01*
X10811747Y10052653D01*
D02*
G37*
G36*
X12465723Y9704706D02*
Y7582072D01*
X12222699Y7339049D01*
X12208815Y7341828D01*
X12208239Y7342549D01*
X12210377Y7353300D01*
Y9537528D01*
X12349002Y9676153D01*
X12350147Y9675492D01*
X12371465Y9669780D01*
X12393535D01*
X12414853Y9675492D01*
X12433967Y9686527D01*
X12449573Y9702133D01*
X12453023Y9708109D01*
X12465723Y9704706D01*
D02*
G37*
G36*
X11153228Y6772525D02*
X11163310Y6765788D01*
X11175203Y6763423D01*
X11620500D01*
X11631251Y6765561D01*
X11631972Y6764985D01*
X11634751Y6751101D01*
X11544128Y6660477D01*
X11226176D01*
X11092777Y6793876D01*
Y6815398D01*
X11096700Y6818075D01*
X11105477Y6820276D01*
X11153228Y6772525D01*
D02*
G37*
D10*
X10526869Y8940931D02*
G03*
X10554716Y8874010I93980J-149D01*
G01*
X10922889Y8953495D02*
G03*
X10918165Y8953417I-889J-88895D01*
G01*
X10046977Y11176000D02*
X13017500D01*
X13347701Y10845800D01*
X9678677Y10807700D02*
X10046977Y11176000D01*
X6997700Y11226800D02*
X13024174D01*
X13410205Y8776695D02*
Y10840769D01*
X13347701Y8420100D02*
Y10845800D01*
X13024174Y11226800D02*
X13410205Y10840769D01*
X13830299Y8140700D02*
Y10553700D01*
X13070659Y11313341D02*
X13830299Y10553700D01*
X6918344Y11313341D02*
X13070659D01*
X11557000Y6629400D02*
X12496800Y7569200D01*
X12382500Y9944100D02*
X12496800Y9829800D01*
Y7569200D02*
Y9829800D01*
X12179300Y9550400D02*
X12382500Y9753600D01*
X11620500Y6794500D02*
X12179300Y7353300D01*
Y9550400D01*
X10818144Y7684478D02*
X10824540Y7678083D01*
X10396027Y7684478D02*
X10818144D01*
X10922000Y7334467D02*
X10922000Y7351302D01*
X10824540Y7678083D02*
X10829932Y7672690D01*
X10566490Y7695392D02*
X10567826D01*
X10829932Y7672690D02*
X11061700Y7440923D01*
X10922000Y7351302D02*
X10931108Y7438608D01*
X10565844Y7695351D02*
X10566490Y7695392D01*
X10922000Y6705600D02*
Y7334467D01*
X10293449Y7581900D02*
X10396027Y7684478D01*
X10606310Y7501516D02*
X10655300Y7581900D01*
X10606310Y7484682D02*
X10606310Y7501516D01*
X10606310Y7050310D02*
Y7484682D01*
X10833100Y7785100D02*
X11125200Y7493000D01*
X10012375Y7785100D02*
X10833100D01*
X11125200Y6844503D02*
Y7493000D01*
X11061700Y6781003D02*
X11213303Y6629400D01*
X11557000D01*
X11125200Y6844503D02*
X11175203Y6794500D01*
X11620500D01*
X11303000Y6883400D02*
Y7200900D01*
X11328400Y6299200D02*
X11950700D01*
X10934700Y6692900D02*
X11328400Y6299200D01*
X10909300Y6692900D02*
X10934700D01*
X10185400Y6750050D02*
X12166600Y4768850D01*
X10074692Y7324308D02*
X10185400Y7213600D01*
Y6750050D02*
Y7213600D01*
X6358001Y7526401D02*
X7975600Y9144000D01*
X6045200Y7526401D02*
X6358001D01*
X7975600Y9144000D02*
Y10109200D01*
X7454900Y8864600D02*
Y9499600D01*
X6997700Y10172700D02*
X7454900Y9715500D01*
X6997700Y10172700D02*
Y10439400D01*
X7454900Y9499600D02*
Y9715500D01*
X6629400Y10350500D02*
X7277100Y9702800D01*
X12700000Y3784600D02*
Y8597900D01*
X12632432Y8665468D02*
X12700000Y8597900D01*
X12611100Y8665468D02*
X12632432D01*
X10554715Y8874009D02*
X11265696Y8172052D01*
X11277600Y8160148D01*
X10620849Y8940782D02*
X10724989Y8945077D01*
X10528301Y9843296D02*
X10534251Y9849248D01*
X10540203Y9855200D01*
X10724989Y8945077D02*
X10918165Y8953417D01*
X11277600Y7226300D02*
Y8160148D01*
X10526869Y8940931D02*
X10528301Y9843296D01*
X10007294Y7790181D02*
X10012375Y7785100D01*
X9448800Y6883400D02*
Y7440466D01*
X9463234Y7454900D01*
X9408160Y5819140D02*
X9994900Y5232400D01*
X9463234Y7454900D02*
Y7469334D01*
X9408160Y5819140D02*
Y6873751D01*
X9463234Y7469334D02*
X9994900Y8001000D01*
X9359900Y6922011D02*
X9408160Y6873751D01*
X9359900Y6922011D02*
Y8526954D01*
X9575800Y8742854D01*
X10074692Y7324308D02*
Y7331492D01*
X8572500Y10198100D02*
X10920723D01*
X10871200Y10096500D02*
X10878820Y10104120D01*
X10464800Y10096500D02*
X10871200D01*
X8280400Y9906000D02*
X8572500Y10198100D01*
X8280400Y9804400D02*
Y9906000D01*
X11628120Y9037320D02*
X11645900Y9055100D01*
X11596917Y8946752D02*
X11613752D01*
X11645900Y9055100D02*
X11658600Y9042400D01*
X11861800D01*
X11628120Y8961120D02*
Y9037320D01*
X11613752Y8946752D02*
X11628120Y8961120D01*
X10579100Y8432800D02*
X11125200Y7886700D01*
X10579100Y8432800D02*
Y8610600D01*
X11277600Y7226300D02*
X11303000Y7200900D01*
X10464800Y8066243D02*
X10502900Y8028143D01*
X10464800Y8066243D02*
Y10096500D01*
X6629400Y10642600D02*
X6794500Y10807700D01*
X9678677D01*
X13068300Y8496300D02*
X13081000Y8509000D01*
X13068300Y8178800D02*
Y8496300D01*
Y8178800D02*
X13258800Y7988300D01*
X13677901D01*
X13830299Y8140700D01*
X6908800Y11290300D02*
Y11303797D01*
X6918344Y11313341D01*
X6426200Y10807700D02*
X6908800Y11290300D01*
X6426200Y10042798D02*
Y10807700D01*
X6026702Y9643300D02*
X6426200Y10042798D01*
X6498117Y10727217D02*
X6997700Y11226800D01*
X6498117Y10303983D02*
Y10727217D01*
Y10303983D02*
X7302500Y9499600D01*
X13410205Y8776695D02*
X13614400Y8572500D01*
X11226800Y9702800D02*
Y10033000D01*
X10858500Y9334500D02*
X11226800Y9702800D01*
X10909300Y10350500D02*
X11226800Y10033000D01*
X8216900Y10350500D02*
X10909300D01*
X7975600Y10109200D02*
X8216900Y10350500D01*
X10922889Y8953495D02*
X11596917Y8946752D01*
X11061700Y6781003D02*
Y7440923D01*
X9982200Y7581900D02*
X10293449D01*
X12611100Y8665468D02*
Y10033000D01*
X12293600Y10350500D02*
X12611100Y10033000D01*
X11088834Y10350500D02*
X12293600D01*
X7302500Y9499600D02*
X7454900D01*
X9601200Y10604500D02*
X10834834D01*
X11088834Y10350500D01*
X10540203Y9855200D02*
X10782300D01*
X10871200Y9944100D01*
X10502900Y8001000D02*
Y8028143D01*
X8699500Y10096500D02*
X10464800D01*
X12166600Y4305300D02*
Y4768850D01*
X9931400Y6743700D02*
X11976100Y4699000D01*
Y4318000D02*
Y4699000D01*
X9931400Y6743700D02*
Y7124700D01*
X9944100Y7137400D01*
X9575800Y8742854D02*
Y9880600D01*
X8437788Y7361012D02*
X8458200Y7340600D01*
X8216900Y7518400D02*
X8374288Y7361012D01*
X8437788D01*
X9290050Y6794500D02*
Y7969250D01*
X8534400Y8724900D02*
X9290050Y7969250D01*
X10337800Y6781800D02*
X10606310Y7050310D01*
X10920723Y10198100D02*
X10972800Y10146023D01*
Y10045700D02*
Y10146023D01*
X10871200Y9944100D02*
X10972800Y10045700D01*
X9448800Y6883400D02*
X10363200Y5969000D01*
X6629400Y10350500D02*
Y10642600D01*
X9994900Y8001000D02*
X10502900D01*
X8686800Y10083800D02*
X8699500Y10096500D01*
X10909300Y6692900D02*
X10922000Y6705600D01*
X12344400Y6299200D02*
Y6616700D01*
X11938000Y5892800D02*
X12344400Y6299200D01*
X11653612Y5900512D02*
Y6002112D01*
X11633200Y5880100D02*
X11653612Y5900512D01*
Y6002112D02*
X11950700Y6299200D01*
X11861800Y9042400D02*
X12001500Y9182100D01*
D30*
X13652499Y6705600D02*
X13931900Y6426200D01*
Y6362700D02*
Y6426200D01*
X13971930Y7884770D02*
X13982700Y7874000D01*
X12941299Y7895540D02*
X12952071Y7884770D01*
X13971930D01*
X13119099Y9042400D02*
X13125450Y9048750D01*
Y9353550D02*
X13131799Y9359900D01*
X13125450Y9048750D02*
Y9353550D01*
D31*
X13639799Y4876800D02*
D03*
Y4622800D02*
D03*
Y4368800D02*
D03*
X13652499Y6210300D02*
D03*
Y5956300D02*
D03*
Y7556500D02*
D03*
Y7302500D02*
D03*
X13614400Y8572500D02*
D03*
Y8826500D02*
D03*
Y9080500D02*
D03*
D32*
X13639799Y4114800D02*
D03*
X13652499Y5702300D02*
D03*
Y7048500D02*
D03*
X13614400Y8318500D02*
D03*
D33*
X11801400Y4388000D02*
D03*
X12379400D02*
D03*
D34*
X12522400Y4020000D02*
D03*
X11658400D02*
D03*
D35*
X12522400Y4438000D02*
D03*
X11658400D02*
D03*
D36*
X6026702Y10143299D02*
D03*
X6045200Y8026400D02*
D03*
D37*
X6026702Y9643300D02*
D03*
X6045200Y7526401D02*
D03*
D38*
X7658100Y5016500D02*
D03*
D39*
X6158100D02*
D03*
D40*
X13931900Y6362700D02*
D03*
X13652499Y6705600D02*
D03*
X10931108Y7438608D02*
D03*
X10655300Y7581900D02*
D03*
X11303000Y6883400D02*
D03*
X7454900Y8864600D02*
D03*
X7277100Y9702800D02*
D03*
X9994900Y9766300D02*
D03*
X13982700Y7874000D02*
D03*
X12941299Y7895540D02*
D03*
X13131799Y9359900D02*
D03*
X13119099Y9042400D02*
D03*
X10620849Y8940782D02*
D03*
X10007294Y7790181D02*
D03*
X9463234Y7454900D02*
D03*
X10074692Y7331492D02*
D03*
X10878820Y10104120D02*
D03*
X11645900Y9055100D02*
D03*
X11125200Y7886700D02*
D03*
X10579100Y8610600D02*
D03*
X13081000Y8509000D02*
D03*
X13347701Y8420100D02*
D03*
X10858500Y9334500D02*
D03*
X12382500Y9753600D02*
D03*
Y9944100D02*
D03*
X9982200Y7581900D02*
D03*
X9601200Y10604500D02*
D03*
X12700000Y3784600D02*
D03*
X9944100Y7137400D02*
D03*
X12166600Y4305300D02*
D03*
X11976100Y4318000D02*
D03*
X9575800Y9880600D02*
D03*
X9994900Y5232400D02*
D03*
X8216900Y7518400D02*
D03*
X8458200Y7340600D02*
D03*
X9290050Y6794500D02*
D03*
X10337800Y6781800D02*
D03*
X8534400Y8724900D02*
D03*
X10871200Y9944100D02*
D03*
X8280400Y9804400D02*
D03*
X12611100Y8686800D02*
D03*
X10502900Y8001000D02*
D03*
X10363200Y5969000D02*
D03*
X6629400Y10642600D02*
D03*
X8686800Y10083800D02*
D03*
X7048500Y8801100D02*
D03*
X6997700Y10439400D02*
D03*
X6781800Y10426700D02*
D03*
X7073900Y9563100D02*
D03*
X9423400Y9385300D02*
D03*
X10909300Y6692900D02*
D03*
X11938000Y5892800D02*
D03*
X12344400Y6616700D02*
D03*
X11633200Y5880100D02*
D03*
X11950700Y6299200D02*
D03*
X12001500Y9182100D02*
D03*
X12344400Y4787900D02*
D03*
%TF.MD5,f3f5e2215e9a015d0b2385c59941fcc2*%
M02*
