M48
;Layer_Color=9474304
;FILE_FORMAT=4:4
METRIC,LZ
;TYPE=PLATED
T2F00S00C0.6500
T3F00S00C0.7112
T4F00S00C1.1000
T5F00S00C1.1500
T6F00S00C1.3000
%
T02
X0123794Y004388
X0118014
T03
X0127Y0037846
X0121666Y0043053
X0119761Y004318
X0123444Y0047879
X011938Y0058928
X0119507Y0062992
X0123444Y0066167
X0136525Y0067056
X0139319Y0063627
X0139827Y007874
X0129413Y00789554
X0111252Y0078867
X01093111Y00743861
X0106553Y0075819
X0099822
X01000729Y00779018
X01007469Y00733149
X0099441Y0071374
X0103378Y0067818
X0109093Y0066929
X011303Y0068834
X0116332Y0058801
X0103632Y005969
X0099949Y0052324
X00929005Y0067945
X00946323Y0074549
X0084582Y0073406
X0082169Y0075184
X0074549Y0088646
X0070485Y0088011
X0070739Y0095631
X0072771Y0097028
X0069977Y0104394
X0067818Y0104267
X0066294Y0106426
X0082804Y0098044
X0086868Y0100838
X0095758Y0098806
X0099949Y0097663
X0094234Y0093853
X0096012Y0106045
X01087882Y01010412
X0108712Y0099441
X0108585Y0093345
X01062085Y00894078
X0105791Y0086106
X0105029Y008001
X0116459Y0090551
X0085344Y0087249
X0120015Y0091821
X0123825Y0097536
Y0099441
X0131318Y0093599
X0131191Y0090424
X013081Y008509
X0133477Y0084201
X0126111Y0086868
T04
X0136398Y0041148
Y0043688
Y0046228
Y0048768
X0136525Y0057023
Y0059563
Y0062103
Y0070485
Y0073025
Y0075565
X0136144Y0083185
Y0085725
Y0088265
Y0090805
T05
X0061581Y0050165
X0076581
T06
X0060452Y0075264
Y0080264
X0060267Y0096433
Y0101433
M30
