%TF.GenerationSoftware,Altium Limited,Altium Designer,22.4.2 (48)*%
G04 Layer_Color=16711935*
%FSLAX45Y45*%
%MOMM*%
%TF.SameCoordinates,2FA726A9-CE4F-4E86-892B-79CA134EB5E5*%
%TF.FilePolarity,Negative*%
%TF.FileFunction,Soldermask,Bot*%
%TF.Part,Single*%
G01*
G75*
%TA.AperFunction,ComponentPad*%
%ADD38C,1.75000*%
%ADD39R,1.75000X1.75000*%
%ADD61C,1.80320*%
%ADD62R,1.80320X1.80320*%
%ADD63C,0.85320*%
G04:AMPARAMS|DCode=64|XSize=1.2032mm|YSize=2.0032mm|CornerRadius=0.6016mm|HoleSize=0mm|Usage=FLASHONLY|Rotation=0.000|XOffset=0mm|YOffset=0mm|HoleType=Round|Shape=RoundedRectangle|*
%AMROUNDEDRECTD64*
21,1,1.20320,0.80000,0,0,0.0*
21,1,0.00000,2.00320,0,0,0.0*
1,1,1.20320,0.00000,-0.40000*
1,1,1.20320,0.00000,-0.40000*
1,1,1.20320,0.00000,0.40000*
1,1,1.20320,0.00000,0.40000*
%
%ADD64ROUNDEDRECTD64*%
G04:AMPARAMS|DCode=65|XSize=1.2032mm|YSize=2.3032mm|CornerRadius=0.6016mm|HoleSize=0mm|Usage=FLASHONLY|Rotation=0.000|XOffset=0mm|YOffset=0mm|HoleType=Round|Shape=RoundedRectangle|*
%AMROUNDEDRECTD65*
21,1,1.20320,1.10000,0,0,0.0*
21,1,0.00000,2.30320,0,0,0.0*
1,1,1.20320,0.00000,-0.55000*
1,1,1.20320,0.00000,-0.55000*
1,1,1.20320,0.00000,0.55000*
1,1,1.20320,0.00000,0.55000*
%
%ADD65ROUNDEDRECTD65*%
%ADD66C,2.15320*%
%ADD67R,2.15320X2.15320*%
%TA.AperFunction,ViaPad*%
%ADD68C,1.47320*%
D38*
X7658100Y5016500D02*
D03*
D39*
X6158100D02*
D03*
D61*
X13639799Y4876800D02*
D03*
Y4622800D02*
D03*
Y4368800D02*
D03*
X13652499Y6210300D02*
D03*
Y5956300D02*
D03*
Y7556500D02*
D03*
Y7302500D02*
D03*
X13614400Y8572500D02*
D03*
Y8826500D02*
D03*
Y9080500D02*
D03*
D62*
X13639799Y4114800D02*
D03*
X13652499Y5702300D02*
D03*
Y7048500D02*
D03*
X13614400Y8318500D02*
D03*
D63*
X11801400Y4388000D02*
D03*
X12379400D02*
D03*
D64*
X12522400Y4020000D02*
D03*
X11658400D02*
D03*
D65*
X12522400Y4438000D02*
D03*
X11658400D02*
D03*
D66*
X6026702Y10143299D02*
D03*
X6045200Y8026400D02*
D03*
D67*
X6026702Y9643300D02*
D03*
X6045200Y7526401D02*
D03*
D68*
X13931900Y6362700D02*
D03*
X13652499Y6705600D02*
D03*
X10931108Y7438608D02*
D03*
X10655300Y7581900D02*
D03*
X11303000Y6883400D02*
D03*
X7454900Y8864600D02*
D03*
X7277100Y9702800D02*
D03*
X9994900Y9766300D02*
D03*
X13982700Y7874000D02*
D03*
X12941299Y7895540D02*
D03*
X13131799Y9359900D02*
D03*
X13119099Y9042400D02*
D03*
X10620849Y8940782D02*
D03*
X10007294Y7790181D02*
D03*
X9463234Y7454900D02*
D03*
X10074692Y7331492D02*
D03*
X10878820Y10104120D02*
D03*
X11645900Y9055100D02*
D03*
X11125200Y7886700D02*
D03*
X10579100Y8610600D02*
D03*
X13081000Y8509000D02*
D03*
X13347701Y8420100D02*
D03*
X10858500Y9334500D02*
D03*
X12382500Y9753600D02*
D03*
Y9944100D02*
D03*
X9982200Y7581900D02*
D03*
X9601200Y10604500D02*
D03*
X12700000Y3784600D02*
D03*
X9944100Y7137400D02*
D03*
X12166600Y4305300D02*
D03*
X11976100Y4318000D02*
D03*
X9575800Y9880600D02*
D03*
X9994900Y5232400D02*
D03*
X8216900Y7518400D02*
D03*
X8458200Y7340600D02*
D03*
X9290050Y6794500D02*
D03*
X10337800Y6781800D02*
D03*
X8534400Y8724900D02*
D03*
X10871200Y9944100D02*
D03*
X8280400Y9804400D02*
D03*
X12611100Y8686800D02*
D03*
X10502900Y8001000D02*
D03*
X10363200Y5969000D02*
D03*
X6629400Y10642600D02*
D03*
X8686800Y10083800D02*
D03*
X7048500Y8801100D02*
D03*
X6997700Y10439400D02*
D03*
X6781800Y10426700D02*
D03*
X7073900Y9563100D02*
D03*
X9423400Y9385300D02*
D03*
X10909300Y6692900D02*
D03*
X11938000Y5892800D02*
D03*
X12344400Y6616700D02*
D03*
X11633200Y5880100D02*
D03*
X11950700Y6299200D02*
D03*
X12001500Y9182100D02*
D03*
X12344400Y4787900D02*
D03*
%TF.MD5,6b33a85a2ef11f08426149923a2857b8*%
M02*
