%TF.GenerationSoftware,Altium Limited,Altium Designer,22.4.2 (48)*%
G04 Layer_Color=8421504*
%FSLAX45Y45*%
%MOMM*%
%TF.SameCoordinates,2FA726A9-CE4F-4E86-892B-79CA134EB5E5*%
%TF.FilePolarity,Positive*%
%TF.FileFunction,Paste,Top*%
%TF.Part,Single*%
G01*
G75*
%TA.AperFunction,SMDPad,CuDef*%
%ADD11R,0.30000X1.15000*%
%ADD12R,2.00000X0.90000*%
%ADD13R,5.00000X5.00000*%
%ADD14R,1.50000X0.90000*%
%ADD15R,1.80000X0.64000*%
%ADD16R,1.50000X1.55000*%
%ADD17R,1.55000X1.55000*%
%ADD18R,0.52000X0.52000*%
%ADD19R,1.25000X1.22000*%
G04:AMPARAMS|DCode=20|XSize=3.25mm|YSize=2.05mm|CornerRadius=0.05125mm|HoleSize=0mm|Usage=FLASHONLY|Rotation=90.000|XOffset=0mm|YOffset=0mm|HoleType=Round|Shape=RoundedRectangle|*
%AMROUNDEDRECTD20*
21,1,3.25000,1.94750,0,0,90.0*
21,1,3.14750,2.05000,0,0,90.0*
1,1,0.10250,0.97375,1.57375*
1,1,0.10250,0.97375,-1.57375*
1,1,0.10250,-0.97375,-1.57375*
1,1,0.10250,-0.97375,1.57375*
%
%ADD20ROUNDEDRECTD20*%
G04:AMPARAMS|DCode=21|XSize=1mm|YSize=2.05mm|CornerRadius=0.05mm|HoleSize=0mm|Usage=FLASHONLY|Rotation=90.000|XOffset=0mm|YOffset=0mm|HoleType=Round|Shape=RoundedRectangle|*
%AMROUNDEDRECTD21*
21,1,1.00000,1.95000,0,0,90.0*
21,1,0.90000,2.05000,0,0,90.0*
1,1,0.10000,0.97500,0.45000*
1,1,0.10000,0.97500,-0.45000*
1,1,0.10000,-0.97500,-0.45000*
1,1,0.10000,-0.97500,0.45000*
%
%ADD21ROUNDEDRECTD21*%
%ADD22R,0.95000X1.45000*%
%ADD23R,1.40000X1.55000*%
%ADD24R,0.90000X0.80000*%
%ADD25R,1.25000X1.55000*%
%ADD26R,0.80000X1.70000*%
%ADD27R,0.50000X0.45000*%
%TA.AperFunction,NonConductor*%
%ADD69R,0.55000X0.25000*%
%ADD70R,0.90000X1.60000*%
D11*
X12425400Y4494500D02*
D03*
X12345400D02*
D03*
X11865400D02*
D03*
X11785400D02*
D03*
X11755400D02*
D03*
X11835400D02*
D03*
X11915400D02*
D03*
X11965400D02*
D03*
X12015400D02*
D03*
X12065400D02*
D03*
X12115400D02*
D03*
X12165400D02*
D03*
X12215400D02*
D03*
X12265400D02*
D03*
X12315400D02*
D03*
X12395400D02*
D03*
D12*
X11138800Y10351000D02*
D03*
Y10224000D02*
D03*
Y10097000D02*
D03*
Y9970000D02*
D03*
Y9843000D02*
D03*
Y9716000D02*
D03*
Y9589000D02*
D03*
Y9462000D02*
D03*
Y9335000D02*
D03*
Y9208000D02*
D03*
Y9081000D02*
D03*
Y8954000D02*
D03*
Y8827000D02*
D03*
Y8700000D02*
D03*
Y8573000D02*
D03*
Y8446000D02*
D03*
Y8319000D02*
D03*
Y8192000D02*
D03*
Y8065000D02*
D03*
X12838800D02*
D03*
Y8192000D02*
D03*
Y8319000D02*
D03*
Y8446000D02*
D03*
Y8573000D02*
D03*
Y8700000D02*
D03*
Y8827000D02*
D03*
Y8954000D02*
D03*
Y9081000D02*
D03*
Y9208000D02*
D03*
Y9335000D02*
D03*
Y9462000D02*
D03*
Y9589000D02*
D03*
Y9716000D02*
D03*
Y9843000D02*
D03*
Y9970000D02*
D03*
Y10097000D02*
D03*
Y10224000D02*
D03*
Y10351000D02*
D03*
D13*
X11888800Y9601000D02*
D03*
D14*
X9626600Y8661200D02*
D03*
Y8331200D02*
D03*
X10116600D02*
D03*
Y8661200D02*
D03*
X10109200Y9245600D02*
D03*
Y8915600D02*
D03*
X9619200D02*
D03*
Y9245600D02*
D03*
D15*
X9722500Y7886700D02*
D03*
Y7759700D02*
D03*
Y7632700D02*
D03*
Y7505700D02*
D03*
Y7378700D02*
D03*
Y7251700D02*
D03*
Y7124700D02*
D03*
Y6997700D02*
D03*
X10343500D02*
D03*
Y7124700D02*
D03*
Y7251700D02*
D03*
Y7378700D02*
D03*
Y7505700D02*
D03*
Y7632700D02*
D03*
Y7759700D02*
D03*
Y7886700D02*
D03*
D16*
X10932500Y6896100D02*
D03*
X11112500D02*
D03*
X12509500Y5346700D02*
D03*
X12329500D02*
D03*
X11164400Y5372100D02*
D03*
X10984400D02*
D03*
X11113600Y6083300D02*
D03*
X10933600D02*
D03*
X11785600D02*
D03*
X11605600D02*
D03*
X12509500Y6096000D02*
D03*
X12329500D02*
D03*
D17*
X12290000Y6896100D02*
D03*
X12475000D02*
D03*
X11798300Y5346700D02*
D03*
X11613300D02*
D03*
D18*
X11569700Y6896100D02*
D03*
X11649700D02*
D03*
D19*
X10002700Y10020300D02*
D03*
X9707700D02*
D03*
D20*
X10375900Y5638800D02*
D03*
D21*
X9740900Y5408800D02*
D03*
Y5638800D02*
D03*
Y5868800D02*
D03*
D22*
X8394700Y6515100D02*
D03*
X8199700D02*
D03*
X7421300Y8077200D02*
D03*
X7226300D02*
D03*
D23*
X8223500Y7137400D02*
D03*
X8413500D02*
D03*
D24*
X9755200Y10915400D02*
D03*
Y10725400D02*
D03*
X9955200Y10820400D02*
D03*
X7215200Y7219700D02*
D03*
Y7029700D02*
D03*
X7415200Y7124700D02*
D03*
D25*
X8190600Y7861300D02*
D03*
X8395600D02*
D03*
X8216900Y9283700D02*
D03*
X8421900D02*
D03*
X8189700Y10020300D02*
D03*
X8394700D02*
D03*
X8177900Y8572500D02*
D03*
X8382900D02*
D03*
D26*
X10561500Y4394200D02*
D03*
X10901500D02*
D03*
X9982200Y4343400D02*
D03*
X9642200D02*
D03*
D27*
X7214200Y8813800D02*
D03*
X7289200D02*
D03*
X7226900Y9525000D02*
D03*
X7301900D02*
D03*
D69*
X7480800Y10590600D02*
D03*
Y10540600D02*
D03*
Y10490600D02*
D03*
Y10440600D02*
D03*
X7225800D02*
D03*
Y10490600D02*
D03*
Y10540600D02*
D03*
Y10590600D02*
D03*
D70*
X7353300Y10515600D02*
D03*
%TF.MD5,82fd13f63375017a441ee1bf2dd3f9c0*%
M02*
