%TF.GenerationSoftware,Altium Limited,Altium Designer,22.4.2 (48)*%
G04 Layer_Color=8388736*
%FSLAX45Y45*%
%MOMM*%
%TF.SameCoordinates,182B737A-6AED-4EB4-8903-81BCB2045D22*%
%TF.FilePolarity,Positive*%
%TF.FileFunction,Other,Top_3D_Body*%
%TF.Part,Single*%
G01*
G75*
%TA.AperFunction,NonConductor*%
%ADD42C,0.20000*%
%ADD44C,0.15000*%
D42*
X11083800Y11100000D02*
X12893800D01*
Y7950000D02*
Y11100000D01*
X11083800Y7950000D02*
X12893800D01*
X11083800D02*
Y11100000D01*
X11557200Y6923600D02*
X11662200D01*
Y6868600D02*
Y6923600D01*
X11557200Y6868600D02*
X11662200D01*
X11557200D02*
Y6923600D01*
X8187200Y6445100D02*
Y6585100D01*
Y6445100D02*
X8407200D01*
Y6585100D01*
X8187200D02*
X8407200D01*
X7213800Y8007200D02*
Y8147200D01*
Y8007200D02*
X7433800D01*
Y8147200D01*
X7213800D02*
X7433800D01*
X10891500Y4259200D02*
Y4529200D01*
X10571500D02*
X10891500D01*
X10571500Y4259200D02*
Y4529200D01*
Y4259200D02*
X10891500D01*
X9652200Y4208400D02*
Y4478400D01*
Y4208400D02*
X9972200D01*
Y4478400D01*
X9652200D02*
X9972200D01*
X7223300Y10385600D02*
Y10645600D01*
Y10385600D02*
X7483300D01*
Y10645600D01*
X7223300D02*
X7483300D01*
D44*
X8138100Y5016500D02*
G03*
X8138100Y5016500I-1230000J0D01*
G01*
%TF.MD5,b5474ec073878be4fbcb78ba945345f2*%
M02*
