%TF.GenerationSoftware,Altium Limited,Altium Designer,22.4.2 (48)*%
G04 Layer_Color=32768*
%FSLAX45Y45*%
%MOMM*%
%TF.SameCoordinates,182B737A-6AED-4EB4-8903-81BCB2045D22*%
%TF.FilePolarity,Positive*%
%TF.FileFunction,Other,Mechanical_15*%
%TF.Part,Single*%
G01*
G75*
%TA.AperFunction,NonConductor*%
%ADD71C,0.10000*%
%ADD72C,0.05000*%
D71*
X9821600Y8496200D02*
X9921600D01*
X9871600Y8446200D02*
Y8546200D01*
X9864200Y9030600D02*
Y9130600D01*
X9814200Y9080600D02*
X9914200D01*
X10972500Y6896100D02*
X11072500D01*
X11022500Y6846100D02*
Y6946100D01*
X12332500Y6896100D02*
X12432500D01*
X12382500Y6846100D02*
Y6946100D01*
X12419500Y5296700D02*
Y5396700D01*
X12369500Y5346700D02*
X12469500D01*
X9805200Y10020300D02*
X9905200D01*
X9855200Y9970300D02*
Y10070300D01*
X11705800Y5296700D02*
Y5396700D01*
X11655800Y5346700D02*
X11755800D01*
X11074400Y5322100D02*
Y5422100D01*
X11024400Y5372100D02*
X11124400D01*
X10058400Y5588800D02*
Y5688800D01*
X10008400Y5638800D02*
X10108400D01*
X11023600Y6033300D02*
Y6133300D01*
X10973600Y6083300D02*
X11073600D01*
X11695600Y6033300D02*
Y6133300D01*
X11645600Y6083300D02*
X11745600D01*
X12419500Y6046000D02*
Y6146000D01*
X12369500Y6096000D02*
X12469500D01*
X8268500Y7137400D02*
X8368500D01*
X8318500Y7087400D02*
Y7187400D01*
X9805200Y10820400D02*
X9905200D01*
X9855200Y10770400D02*
Y10870400D01*
X8243100Y7861300D02*
X8343100D01*
X8293100Y7811300D02*
Y7911300D01*
X8269400Y9283700D02*
X8369400D01*
X8319400Y9233700D02*
Y9333700D01*
X8242200Y10020300D02*
X8342200D01*
X8292200Y9970300D02*
Y10070300D01*
X7265200Y7124700D02*
X7365200D01*
X7315200Y7074700D02*
Y7174700D01*
X8230400Y8572500D02*
X8330400D01*
X8280400Y8522500D02*
Y8622500D01*
X7224200Y8813800D02*
X7279200D01*
X7251700Y8786300D02*
Y8841300D01*
X7236900Y9525000D02*
X7291900D01*
X7264400Y9497500D02*
Y9552500D01*
D72*
X13639799Y4445800D02*
Y4545800D01*
X13589799Y4495800D02*
X13689799D01*
X13485300Y3952800D02*
Y5038800D01*
X13794299D01*
Y3952800D02*
Y5038800D01*
X13485300Y3952800D02*
X13794299D01*
X9541600Y8236200D02*
X10201600D01*
X9541600Y8756200D02*
X10201600D01*
Y8236200D02*
Y8756200D01*
X9541600Y8236200D02*
Y8756200D01*
X9534200Y8820600D02*
Y9340600D01*
X10194200Y8820600D02*
Y9340600D01*
X9534200D02*
X10194200D01*
X9534200Y8820600D02*
X10194200D01*
X9595500Y7992200D02*
X10470500D01*
Y6892200D02*
Y7992200D01*
X9595500Y6892200D02*
X10470500D01*
X9595500D02*
Y7992200D01*
X5931700Y9893300D02*
X6031700D01*
X5981700Y9843300D02*
Y9943300D01*
X5586700Y9313300D02*
Y10473300D01*
X6376700D01*
Y9313300D02*
Y10473300D01*
X5586700Y9313300D02*
X6376700D01*
X13498000Y5540300D02*
X13807001D01*
Y6372300D01*
X13498000D02*
X13807001D01*
X13498000Y5540300D02*
Y6372300D01*
X13602499Y5956300D02*
X13702499D01*
X13652499Y5906300D02*
Y6006300D01*
X13498000Y6886500D02*
X13807001D01*
Y7718500D01*
X13498000D02*
X13807001D01*
X13498000Y6886500D02*
Y7718500D01*
X13602499Y7302500D02*
X13702499D01*
X13652499Y7252500D02*
Y7352500D01*
X13459900Y8156500D02*
X13768900D01*
Y9242500D01*
X13459900D02*
X13768900D01*
X13459900Y8156500D02*
Y9242500D01*
X13564400Y8699500D02*
X13664400D01*
X13614400Y8649500D02*
Y8749500D01*
X10807500Y6766100D02*
Y7026100D01*
X11237500Y6766100D02*
Y7026100D01*
X10807500D02*
X11237500D01*
X10807500Y6766100D02*
X11237500D01*
X12162500D02*
Y7026100D01*
X12602500Y6766100D02*
Y7026100D01*
X12162500D02*
X12602500D01*
X12162500Y6766100D02*
X12602500D01*
X12204500Y5216700D02*
X12634500D01*
X12204500Y5476700D02*
X12634500D01*
Y5216700D02*
Y5476700D01*
X12204500Y5216700D02*
Y5476700D01*
X9635200Y9927800D02*
X10075200D01*
Y10112800D01*
X9635200D02*
X10075200D01*
X9635200Y9927800D02*
Y10112800D01*
X11485800Y5216700D02*
X11925800D01*
X11485800Y5476700D02*
X11925800D01*
Y5216700D02*
Y5476700D01*
X11485800Y5216700D02*
Y5476700D01*
X10859400Y5242100D02*
X11289400D01*
X10859400Y5502100D02*
X11289400D01*
Y5242100D02*
Y5502100D01*
X10859400Y5242100D02*
Y5502100D01*
X9588400Y5253800D02*
X10528400D01*
X9588400Y6023800D02*
X10528400D01*
Y5253800D02*
Y6023800D01*
X9588400Y5253800D02*
Y6023800D01*
X10808600Y5953300D02*
X11238600D01*
X10808600Y6213300D02*
X11238600D01*
Y5953300D02*
Y6213300D01*
X10808600Y5953300D02*
Y6213300D01*
X11480600Y5953300D02*
X11910600D01*
X11480600Y6213300D02*
X11910600D01*
Y5953300D02*
Y6213300D01*
X11480600Y5953300D02*
Y6213300D01*
X12204500Y5966000D02*
X12634500D01*
X12204500Y6226000D02*
X12634500D01*
Y5966000D02*
Y6226000D01*
X12204500Y5966000D02*
Y6226000D01*
X8103500Y7007400D02*
Y7267400D01*
X8533500Y7007400D02*
Y7267400D01*
X8103500D02*
X8533500D01*
X8103500Y7007400D02*
X8533500D01*
X9700200Y10664400D02*
Y10976400D01*
X10010200Y10664400D02*
Y10976400D01*
X9700200D02*
X10010200D01*
X9700200Y10664400D02*
X10010200D01*
X8078100Y7731300D02*
Y7991300D01*
X8508100Y7731300D02*
Y7991300D01*
X8078100D02*
X8508100D01*
X8078100Y7731300D02*
X8508100D01*
X8104400Y9153700D02*
Y9413700D01*
X8534400Y9153700D02*
Y9413700D01*
X8104400D02*
X8534400D01*
X8104400Y9153700D02*
X8534400D01*
X8077200Y9890300D02*
Y10150300D01*
X8507200Y9890300D02*
Y10150300D01*
X8077200D02*
X8507200D01*
X8077200Y9890300D02*
X8507200D01*
X7160200Y6968700D02*
Y7280700D01*
X7470200Y6968700D02*
Y7280700D01*
X7160200D02*
X7470200D01*
X7160200Y6968700D02*
X7470200D01*
X8065400Y8442500D02*
Y8702500D01*
X8495400Y8442500D02*
Y8702500D01*
X8065400D02*
X8495400D01*
X8065400Y8442500D02*
X8495400D01*
X7176700Y8773800D02*
Y8853800D01*
X7326700Y8773800D02*
Y8853800D01*
X7176700D02*
X7326700D01*
X7176700Y8773800D02*
X7326700D01*
X7189400Y9485000D02*
Y9565000D01*
X7339400Y9485000D02*
Y9565000D01*
X7189400D02*
X7339400D01*
X7189400Y9485000D02*
X7339400D01*
X5950198Y7776400D02*
X6050198D01*
X6000198Y7726401D02*
Y7826400D01*
X5605198Y7196400D02*
Y8356401D01*
X6395198D01*
Y7196400D02*
Y8356401D01*
X5605198Y7196400D02*
X6395198D01*
%TF.MD5,85967a3371f5ceff397c7b19f72e6452*%
M02*
